<svg width="362" height="68" viewBox="0 0 362 68" fill="none" xmlns="http://www.w3.org/2000/svg">
<g clip-path="url(#clip0_161_5580)">
<path d="M50.2697 55.0001C46.7597 60.2701 43.0798 62.5501 35.5298 62.5501C22.8098 62.5501 10.4398 52.6401 10.4398 34.9101C10.4398 18.6801 20.5297 7.91009 34.8297 7.91009C40.8797 7.91009 45.1797 9.84009 47.8297 12.9101C50.4797 15.9801 52.2097 19.3201 54.1397 23.7901C54.9524 20.31 55.3352 16.7434 55.2798 13.1701C55.2798 10.2801 55.1097 8.7001 55.0197 7.1701C48.7113 4.32453 41.8491 2.91724 34.9298 3.05011C15.4498 3.05011 0.00976562 15.7701 0.00976562 35.0501C0.00976562 56.3701 17.2898 67.2501 34.6598 67.2501C41.7698 67.2501 49.4897 65.8401 55.0197 62.7701C55.7854 58.9578 56.1673 55.0785 56.1598 51.1901C56.2183 48.8484 56.0711 46.5061 55.7198 44.1901C54.2177 47.9436 52.3943 51.5604 50.2697 55.0001Z" fill="#1A1212"/>
<path d="M87.4498 48.51V40.79C87.6009 37.3237 86.6141 33.9032 84.6398 31.05C82.4498 27.98 78.3298 26.3201 73.6398 26.3201C67.4998 26.3201 62.4099 30.09 62.4099 36.41C65.0253 34.2246 68.3027 32.9877 71.7098 32.9C72.7712 32.8167 73.8376 32.979 74.8261 33.3744C75.8146 33.7698 76.6987 34.3877 77.4099 35.1801C78.6793 36.802 79.3314 38.822 79.2499 40.88V44.2101C74.5199 45.5301 68.8999 47.4601 65.5699 49.5701C62.2399 51.6801 59.8599 54.48 59.8599 58.78C59.8599 63.43 63.4598 67.2001 69.0798 67.2001C73.1998 67.2001 77.3199 64.74 79.6099 59.48C80.6099 63.78 83.0298 66.48 89.7798 66.48C90.2813 66.47 90.7804 66.4097 91.2698 66.3C89.2698 63.93 87.8498 61.21 87.5898 55.6C87.4498 52.72 87.4498 51.23 87.4498 48.51ZM79.2899 51.76C79.2899 57.76 75.5199 61.0601 71.9199 61.0601C71.3989 61.1009 70.8752 61.0297 70.3841 60.8513C69.8929 60.6729 69.4457 60.3913 69.0724 60.0256C68.6992 59.6599 68.4085 59.2186 68.2201 58.7312C68.0316 58.2438 67.9497 57.7218 67.9799 57.2001C67.9799 54.8301 69.6399 52.28 74.5599 50C76.2199 49.21 77.6299 48.6 79.2899 48V51.76Z" fill="#1A1212"/>
<path d="M112.19 32.8099L114.19 27.5399C110.94 27.7199 107.61 27.8098 104.19 27.8898V21.0499C104.19 9.04987 107.44 5.33978 111.39 5.33978C114.99 5.33978 117.88 8.58978 121.22 16.3398C122.832 13.6565 123.737 10.6081 123.85 7.4798C123.846 5.79931 123.669 4.12371 123.32 2.4798C120.341 1.05981 117.057 0.396953 113.76 0.549866C104.76 0.549866 99.19 7.47988 96.76 18.1899C95.7 23.0999 95.7601 26.5198 93.2501 29.5898L92.8101 30.1198C95.3501 31.6998 95.97 33.1898 95.97 36.6098V49.6098C95.97 52.2498 95.97 55.2299 95.79 57.9499C95.7779 60.8912 94.7579 63.7395 92.9 66.0198H93.9C96.62 66.0198 98.2 65.7598 100.22 65.7598C102.24 65.7598 104.08 66.0198 106.89 66.0198H108.03C105.844 63.8965 104.582 60.997 104.52 57.9499C104.34 55.7599 104.25 53.2099 104.25 49.7899V32.8598L112.19 32.8099Z" fill="#1A1212"/>
<path d="M130.35 0L128.07 22.81L140.18 3.33L130.35 0Z" fill="#1A1212"/>
<path d="M132.2 26.05C121.32 26.05 112.72 35.0501 112.72 47.4601C112.72 58.0801 120.35 67.29 132.11 67.29C140.11 67.29 146.67 61.23 146.94 52.02C142.2 57.37 138.25 59.65 133.16 59.65C125.7 59.65 121.06 53.86 121.06 45.65C121.032 44.8861 121.089 44.1213 121.23 43.37H147.73C147.871 42.6153 147.928 41.8473 147.9 41.0801C147.9 32.4601 141.41 26.05 132.2 26.05ZM121.76 39.3C122.76 34.3 126.23 30.61 130.88 30.61C135.27 30.61 138.6 33.42 138.69 39.3H121.76Z" fill="#1A1212"/>
<path d="M193.24 57.4601C192.512 58.5244 191.564 59.4198 190.46 60.0858C189.355 60.7518 188.121 61.1727 186.84 61.3201C184.188 61.6697 181.514 61.8168 178.84 61.76C174.89 61.76 173.75 60.97 173.31 56.67C173.14 54.92 172.96 50.18 172.96 47.11V36.3201C175.86 36.3201 180.96 36.41 183.76 36.76C187.7 37.28 189.76 38.86 192.7 41.41V40.53C192.7 37.72 192.44 36.2301 192.44 34.2101C192.44 32.1901 192.7 30.7901 192.7 28.0701V27.0701C189.81 29.6201 187.7 31.3701 183.76 31.8101C180.95 32.0801 175.95 32.16 172.96 32.16V21.63C172.96 18.48 172.96 15.32 173.23 12.63C173.49 9.12 174.02 8.42004 178.14 8.42004C180.32 8.34817 182.501 8.55312 184.63 9.03003C186.478 9.44417 188.179 10.3533 189.55 11.66C191.901 14.1219 194.014 16.8005 195.86 19.66C195.935 18.9292 195.965 18.1946 195.95 17.4601C195.944 13.0185 195.533 8.58658 194.72 4.21997C191.3 4.47997 188.41 4.47998 184.81 4.47998H168.54C166.43 4.47998 164.68 4.21997 161.26 4.21997H160.54C162.9 7.10997 163.43 9.92003 163.69 13.78C163.96 16.78 163.96 20.3601 163.96 23.4301V46.77C163.96 49.84 163.96 53.44 163.69 56.42C163.43 60.28 162.9 63.09 160.54 65.98H161.24C164.66 65.98 166.41 65.72 168.52 65.72C179.75 65.72 190.45 65.81 196.86 66.16C198.125 61.4351 198.797 56.571 198.86 51.6801C198.86 50.8001 198.86 49.8401 198.77 48.9601C196.22 53.0701 194.64 55.6201 193.24 57.4601Z" fill="#1A1212"/>
<path d="M212.12 49.3899V16.4899C212.2 10.6999 212.2 7.27986 212.55 0.609863C207.73 2.97986 204.66 4.28989 200.18 6.13989C202.47 8.13989 203.25 9.46986 203.61 12.9799C203.87 15.6099 203.87 18.4199 203.87 21.0499V49.3899C203.87 52.1099 203.87 55.0899 203.61 57.8099C203.34 61.4099 202.82 63.5998 200.71 65.9698H201.59C204.48 65.9698 206.06 65.71 207.9 65.71C210.01 65.71 211.24 65.9698 213.96 65.9698H214.84C213.08 63.5098 212.64 61.2299 212.38 57.8999C212.2 55.1499 212.12 52.1499 212.12 49.3899Z" fill="#1A1212"/>
<path d="M235.11 26.05C224.23 26.05 215.63 35.0501 215.63 47.4601C215.63 58.0801 223.26 67.29 235.02 67.29C243.02 67.29 249.58 61.23 249.85 52.02C245.11 57.37 241.16 59.65 236.07 59.65C228.62 59.65 223.97 53.86 223.97 45.65C223.942 44.8861 223.999 44.1213 224.14 43.37H250.64C250.781 42.6153 250.838 41.8473 250.81 41.0801C250.81 32.4601 244.32 26.05 235.11 26.05ZM224.67 39.3C225.67 34.3 229.14 30.61 233.79 30.61C238.18 30.61 241.51 33.42 241.6 39.3H224.67Z" fill="#1A1212"/>
<path d="M286.16 27.8899C284.24 27.8899 283.44 28.1599 281.78 28.1599C280.12 28.1599 278.78 27.8899 277.04 27.8899H275.81C277.114 29.8067 277.811 32.0716 277.81 34.3899C277.81 35.7899 277.46 38.5999 275.18 43.3899L270.44 53.3899L266.14 43.3899C263.6 37.6799 262.81 35.05 262.81 33.21C262.81 31.63 263.25 30.2099 264.65 27.9399H263.44C261.51 27.9399 259.14 28.21 257.12 28.21C254.93 28.21 253.53 27.9399 251.33 27.9399H250.46C251.77 30.6599 252.39 32.1599 253.7 35.0499C255.19 38.3799 256.33 41.3699 257.47 43.9099L268.35 68.0399L279.94 43.9099C281.08 41.4499 282.04 38.9099 283.36 36.1899C284.94 32.8599 286.16 30.4899 287.48 27.9399L286.16 27.8899Z" fill="#1A1212"/>
<path d="M304.67 26.05C293.79 26.05 285.19 35.0501 285.19 47.4601C285.19 58.0801 292.83 67.29 304.58 67.29C312.58 67.29 319.15 61.23 319.41 52.02C314.67 57.37 310.73 59.65 305.64 59.65C298.18 59.65 293.53 53.86 293.53 45.65C293.502 44.8861 293.559 44.1213 293.7 43.37H320.2C320.349 42.6163 320.41 41.8478 320.38 41.0801C320.38 32.4601 313.88 26.05 304.67 26.05ZM294.23 39.3C295.23 34.3 298.71 30.61 303.36 30.61C307.74 30.61 311.08 33.42 311.16 39.3H294.23Z" fill="#1A1212"/>
<path d="M358.1 57.81C357.83 55.09 357.83 52.1999 357.83 49.4799V39.4799C357.976 36.6937 357.339 33.9222 355.99 31.4799C354.982 29.7704 353.526 28.3687 351.78 27.4259C350.033 26.4831 348.062 26.035 346.08 26.1299C340.81 26.1299 336.69 29.55 334.32 34.2C334.41 31.66 334.58 29.4599 334.94 26.6599C330.72 28.5899 327.04 30.25 322.56 32.18C325.02 33.76 325.72 35.3399 325.99 38.8499C326.16 41.5699 326.25 44.1099 326.25 46.7499V49.4699C326.25 52.1899 326.25 55.08 325.99 57.8C325.72 61.4 325.2 63.59 323.09 65.96H323.97C326.86 65.96 328.44 65.7 330.29 65.7C332.39 65.7 333.53 65.96 336.29 65.96H337.17C335.41 63.5 334.98 61.2199 334.71 57.8899C334.54 55.1699 334.45 52.1899 334.45 49.4699V41.4699C334.398 40.323 334.585 39.178 334.997 38.1067C335.41 37.0355 336.04 36.0613 336.848 35.2458C337.656 34.4302 338.625 33.791 339.692 33.3683C340.759 32.9456 341.903 32.7487 343.05 32.7899C347.17 32.7899 349.71 35.59 349.71 40.07V49.46C349.71 52.18 349.63 55.1599 349.45 57.8799C349.19 61.2099 348.84 63.49 347.08 65.95H348.08C350.63 65.95 351.77 65.69 353.79 65.69C355.63 65.69 357.3 65.95 360.19 65.95H361.07C358.89 63.51 358.36 61.41 358.1 57.81Z" fill="#1A1212"/>
</g>
<defs>
<clipPath id="clip0_161_5580">
<rect width="361.08" height="67.99" fill="white"/>
</clipPath>
</defs>
</svg>
