<?xml version="1.0" encoding="utf-8"?>
<!-- Generator: Adobe Illustrator 26.0.1, SVG Export Plug-In . SVG Version: 6.00 Build 0)  -->
<svg version="1.1" id="Layer_1" xmlns="http://www.w3.org/2000/svg" xmlns:xlink="http://www.w3.org/1999/xlink" x="0px" y="0px"
	 viewBox="0 0 83 111.2" style="enable-background:new 0 0 83 111.2;" xml:space="preserve">
<style type="text/css">
	.st0{fill:#CBC8C4;}
	.st1{fill:#1A1212;}
</style>
<path class="st0" d="M15.9,111.2c-7.5,0-13.5-6.1-13.5-13.5s6.1-13.5,13.5-13.5s13.5,6.1,13.5,13.5S23.4,111.2,15.9,111.2z
	 M15.9,86.2c-6.3,0-11.4,5.1-11.4,11.4s5.1,11.4,11.4,11.4s11.4-5.1,11.4-11.4S22.2,86.2,15.9,86.2z"/>
<path class="st1" d="M5.6,56.4l-1.3-2l1-1.4c0.3-0.3,0.7-1,1-1.4c0.4-0.5,0.6-0.8,1-1.3H7.1c-0.3,0-0.5,0-0.8,0c-0.3,0-0.4,0-0.8,0
	H5.4c0.1,0.1,0.2,0.2,0.2,0.3c0,0.1,0.1,0.2,0.1,0.4c0,0.4-0.3,0.7-1.2,2.1L3.9,54l-0.6-0.9c-0.7-1-1.2-1.7-1.2-2.1
	c0-0.3,0.1-0.5,0.3-0.7H2.3c-0.4,0-0.7,0-1,0s-0.5,0-0.8,0H0.4c0.3,0.4,0.7,0.9,0.9,1.3c0.3,0.4,0.7,1,0.9,1.4l1.1,1.7l-1.2,1.7
	c-0.3,0.3-0.8,1-1.1,1.4c-0.4,0.6-0.6,0.9-1,1.3h0.2c0.3,0,0.6,0,0.9,0s0.4,0,0.8,0H2c-0.2-0.2-0.3-0.4-0.3-0.7c0-0.3,0.2-0.7,1.1-2
	l0.8-1.2l1,1.4c0.9,1.3,1,1.6,1,1.9c0,0.1,0,0.2-0.1,0.4s-0.1,0.2-0.2,0.3h0.2c0.4,0,0.6,0,0.9,0c0.3,0,0.5,0,0.8,0h0.2
	c-0.3-0.5-0.6-0.8-0.9-1.4C6.3,57.4,5.8,56.7,5.6,56.4z"/>
<path class="st1" d="M40.4,99.3l-1.3-2l1-1.4c0.3-0.3,0.7-1,1-1.4c0.4-0.5,0.6-0.8,1-1.3h-0.2c-0.3,0-0.5,0-0.8,0s-0.4,0-0.8,0h-0.2
	c0.1,0.1,0.2,0.2,0.2,0.3c0.1,0.1,0.1,0.2,0.1,0.4c0,0.4-0.3,0.7-1.2,2.1l-0.6,0.9L38.1,96c-0.7-1.1-1.2-1.7-1.2-2
	c0-0.3,0.1-0.5,0.3-0.7h-0.1c-0.4,0-0.7,0-1,0c-0.3,0-0.5,0-0.8,0h-0.2c0.3,0.4,0.7,0.9,0.9,1.3c0.3,0.4,0.7,1,0.9,1.4l1.1,1.6
	l-1.2,1.7c-0.3,0.3-0.8,1-1.1,1.4c-0.4,0.6-0.6,0.9-1,1.3H35c0.3,0,0.6,0,0.9,0c0.3,0,0.4,0,0.8,0h0.2c-0.2-0.2-0.3-0.4-0.3-0.7
	c0-0.3,0.2-0.7,1.1-2l0.8-1.2l1,1.4c0.9,1.3,1,1.6,1,1.9c0,0.1,0,0.2-0.1,0.4c-0.1,0.1-0.1,0.2-0.2,0.3h0.2c0.4,0,0.6,0,0.9,0
	s0.5,0,0.8,0h0.2c-0.3-0.5-0.6-0.8-0.9-1.4C41,100.3,40.6,99.7,40.4,99.3z"/>
<path class="st1" d="M45,96c0-0.4,0-1,0-1.4c0-0.2,0-0.5,0.1-0.7c0.1-0.2,0.2-0.4,0.4-0.6h-0.1c-0.2,0-0.5,0.1-0.9,0.1
	s-0.6-0.1-0.9-0.1h-0.2c0.3,0.4,0.5,0.9,0.5,1.3c0,0.4,0,0.9,0,1.4v3.3c0,0.4,0,1,0,1.4c0,0.5-0.1,1-0.5,1.4h0.2
	c0.2,0,0.5-0.1,0.9-0.1s0.6,0.1,0.9,0.1h0.1c-0.2-0.2-0.3-0.4-0.4-0.6c-0.1-0.2-0.1-0.5-0.1-0.7c0-0.4,0-1,0-1.4V96z"/>
<path class="st1" d="M48,96c0-0.4,0-1,0-1.4c0-0.2,0-0.5,0.1-0.7c0.1-0.2,0.2-0.4,0.4-0.6h-0.2c-0.2,0-0.5,0.1-0.9,0.1
	s-0.6-0.1-0.9-0.1h-0.1c0.3,0.4,0.5,0.9,0.5,1.3c0,0.4,0,0.9,0,1.4v3.3c0,0.4,0,1,0,1.4c0,0.5-0.1,1-0.5,1.4h0.1
	c0.2,0,0.5-0.1,0.9-0.1s0.6,0.1,0.9,0.1h0.2c-0.2-0.2-0.3-0.4-0.4-0.6c-0.1-0.2-0.1-0.5-0.1-0.7c0-0.4,0-1,0-1.4V96z"/>
<path class="st1" d="M61.1,96c0-0.4,0-1,0-1.4c0-0.2,0-0.5,0.1-0.7c0.1-0.2,0.2-0.4,0.4-0.6h-0.2c-0.2,0-0.5,0.1-0.9,0.1
	c-0.4,0-0.6-0.1-0.9-0.1h-0.2c0.3,0.4,0.5,0.9,0.5,1.3c0,0.4,0,0.9,0,1.4v3.3c0,0.4,0,1,0,1.4c0,0.5-0.1,1-0.5,1.4h0.2
	c0.2,0,0.5-0.1,0.9-0.1c0.4,0,0.6,0.1,0.9,0.1h0.2c-0.2-0.2-0.3-0.4-0.4-0.6c-0.1-0.2-0.1-0.5-0.1-0.7c0-0.4,0-1,0-1.4V96z"/>
<path class="st1" d="M72.4,90.8c0-0.4,0-1,0-1.4c0-0.2,0-0.5,0.1-0.7c0.1-0.2,0.2-0.4,0.4-0.6h-0.2c-0.2,0-0.5,0.1-0.9,0.1
	c-0.4,0-0.6-0.1-0.9-0.1h-0.1c0.3,0.4,0.5,0.9,0.5,1.4c0,0.4,0,1,0,1.4v3.4c0,0.4,0,1,0,1.4c0,0.5-0.1,1-0.5,1.3H71
	c0.2,0,0.5-0.1,0.9-0.1c0.4,0,0.6,0.1,0.9,0.1h0.2c-0.2-0.2-0.3-0.4-0.4-0.6c-0.1-0.2-0.1-0.5-0.1-0.7c0-0.4,0-0.9,0-1.4V90.8z"/>
<path class="st1" d="M75.7,90.8c0-0.4,0-1,0-1.4c0-0.2,0-0.5,0.1-0.7c0.1-0.2,0.2-0.4,0.4-0.6H76c-0.2,0-0.5,0.1-0.8,0.1
	c-0.4,0-0.6-0.1-0.9-0.1h-0.2c0.3,0.4,0.5,0.9,0.5,1.4c0,0.4,0,1,0,1.4v3.4c0,0.4,0,1,0,1.4c0,0.5-0.1,1-0.5,1.3h0.2
	c0.2,0,0.5-0.1,0.9-0.1c0.4,0,0.6,0.1,0.8,0.1h0.2c-0.2-0.2-0.3-0.4-0.4-0.6c-0.1-0.2-0.1-0.5-0.1-0.7c0-0.4,0-0.9,0-1.4V90.8z"/>
<path class="st1" d="M76.4,59.4c0-0.4,0-1,0-1.4c0-0.2,0-0.5,0.1-0.7c0.1-0.2,0.2-0.4,0.4-0.6h-0.1c-0.2,0-0.5,0.1-0.9,0.1
	c-0.4,0-0.6-0.1-0.9-0.1h-0.2c0.3,0.4,0.5,0.9,0.5,1.3c0,0.4,0,1,0,1.4v3.4c0,0.4,0,1,0,1.4c0,0.5-0.1,1-0.5,1.4H75
	c0.2,0,0.5-0.1,0.9-0.1s0.6,0.1,0.9,0.1h0.1c-0.2-0.2-0.3-0.4-0.4-0.6c-0.1-0.2-0.1-0.5-0.1-0.7c0-0.4,0-1,0-1.4V59.4z"/>
<path class="st1" d="M79.5,59.4c0-0.4,0-1,0-1.4c0-0.2,0-0.5,0.1-0.7c0.1-0.2,0.2-0.4,0.4-0.6h-0.2c-0.2,0-0.5,0.1-0.9,0.1
	c-0.4,0-0.6-0.1-0.9-0.1h-0.2c0.3,0.4,0.5,0.9,0.5,1.3c0,0.4,0,1,0,1.4v3.4c0,0.4,0,1,0,1.4c0,0.5-0.1,1-0.5,1.4H78
	c0.2,0,0.5-0.1,0.9-0.1s0.6,0.1,0.9,0.1h0.2c-0.2-0.2-0.3-0.4-0.4-0.6c-0.1-0.2-0.1-0.5-0.1-0.7c0-0.4,0-1,0-1.4L79.5,59.4z"/>
<path class="st1" d="M82.5,64.1c0-0.4,0-1,0-1.4v-3.4c0-0.4,0-1,0-1.4c0-0.2,0-0.5,0.1-0.7c0.1-0.2,0.2-0.4,0.4-0.6h-0.2
	c-0.2,0-0.5,0.1-0.9,0.1c-0.4,0-0.6-0.1-0.9-0.1H81c0.3,0.4,0.5,0.9,0.5,1.3c0,0.4,0,1,0,1.4v3.4c0,0.4,0,1,0,1.4
	c0,0.5-0.1,1-0.5,1.4h0.1c0.2,0,0.5-0.1,0.9-0.1c0.4,0,0.6,0.1,0.9,0.1H83c-0.2-0.2-0.3-0.4-0.4-0.6C82.5,64.6,82.5,64.4,82.5,64.1z
	"/>
<g>
	<path class="st1" d="M15.8,99.3l-1.3-2l1-1.4c0.3-0.3,0.7-1,1-1.4c0.4-0.5,0.6-0.8,1-1.3h-0.2c-0.3,0-0.5,0-0.8,0s-0.4,0-0.8,0
		h-0.2c0.1,0.1,0.2,0.2,0.2,0.3c0.1,0.1,0.1,0.2,0.1,0.4c0,0.4-0.3,0.7-1.2,2.1l-0.6,0.9L13.5,96c-0.7-1.1-1.2-1.7-1.1-2.1
		c0-0.3,0.1-0.5,0.3-0.7h-0.1c-0.4,0-0.7,0-1,0c-0.3,0-0.5,0-0.8,0h-0.2c0.3,0.4,0.7,0.9,0.9,1.3c0.3,0.4,0.7,1,0.9,1.4l1.1,1.7
		l-1.2,1.7c-0.3,0.3-0.8,1-1.1,1.4c-0.4,0.6-0.6,0.9-1,1.3h0.2c0.3,0,0.6,0,0.9,0c0.3,0,0.4,0,0.8,0h0.2c-0.2-0.2-0.3-0.4-0.3-0.7
		c0-0.3,0.2-0.7,1.1-2l0.8-1.2l1,1.4c0.9,1.3,1,1.6,1,1.9c0,0.1,0,0.2-0.1,0.4c-0.1,0.1-0.1,0.2-0.2,0.3h0.2c0.4,0,0.6,0,0.9,0
		s0.5,0,0.8,0h0.2c-0.3-0.5-0.6-0.8-0.9-1.4C16.4,100.3,16,99.7,15.8,99.3z"/>
	<path class="st1" d="M20.4,96c0-0.4,0-1,0-1.4c0-0.2,0-0.5,0.1-0.7s0.2-0.4,0.4-0.6h-0.1c-0.2,0-0.5,0.1-0.9,0.1s-0.6-0.1-0.9-0.1
		h-0.2c0.3,0.4,0.5,0.9,0.5,1.3c0,0.4,0,0.9,0,1.4v3.3c0,0.4,0,1,0,1.4c0,0.5-0.1,1-0.5,1.4H19c0.2,0,0.5-0.1,0.9-0.1
		s0.6,0.1,0.9,0.1h0.1c-0.2-0.2-0.3-0.4-0.4-0.6c-0.1-0.2-0.1-0.5-0.1-0.7c0-0.4,0-1,0-1.4V96z"/>
</g>
<path class="st1" d="M45.8,7l27.5,63.5l-0.7,0.3l1.7,1.2l0.2-2.1l-0.7,0.3L46.4,7.2l24.4,47.5l-0.7,0.4l1.8,1.1l0.1-2.1l-0.7,0.4
	L44.7,2.9l35,47.3l-0.6,0.5l1.9,0.8l-0.2-2.1l-0.6,0.5L43.3,0.1c0,0,0,0,0,0c0,0,0,0,0,0c0,0,0,0,0,0c0,0,0,0,0,0c0,0,0,0,0,0
	c0,0,0,0,0,0c0,0,0,0,0,0c0,0,0,0,0,0c0,0,0,0,0,0c0,0,0,0,0,0c0,0,0,0,0,0c0,0,0,0,0,0c0,0,0,0,0,0c0,0,0,0,0,0c0,0,0,0,0,0
	c0,0,0,0,0,0c0,0,0,0,0,0c0,0,0,0,0,0c0,0,0,0,0,0c0,0,0,0,0,0c0,0,0,0,0,0c0,0,0,0,0,0c0,0,0,0,0,0c0,0,0,0,0,0c0,0,0,0,0,0
	c0,0,0,0,0,0c0,0,0,0,0,0c0,0,0,0,0,0c0,0,0,0,0,0c0,0,0,0,0,0c0,0,0,0,0,0c0,0,0,0,0,0c0,0,0,0,0,0c0,0,0,0,0,0c0,0,0,0,0,0
	c0,0,0,0,0,0c0,0,0,0,0,0c0,0,0,0,0,0c0,0,0,0,0,0c0,0,0,0,0,0c0,0,0,0,0,0c0,0,0,0,0,0c0,0,0,0,0,0L10.7,52.2L10,51.8l-0.1,2.1
	l1.8-1l-0.7-0.4L41.7,3L8.9,81.9l-0.7-0.3l0.3,2.1l1.7-1.3L9.4,82L41.9,3.7L20.3,86.6l-0.8-0.2l0.5,2l1.5-1.5l-0.8-0.2L42.4,3.8
	L32.4,88.4l-0.8-0.1l0.8,1.9l1.3-1.7l-0.8-0.1l9.9-83.5l-0.9,83.4l-0.8,0l1,1.8l1.1-1.8l-0.8,0l0.9-83.2L51,89.1l-0.8,0.1l1.2,1.7
	l0.9-1.9L51.5,89L43.9,5.8l15.2,83.8l-0.8,0.1l1.3,1.6l0.7-2l-0.8,0.1L44.4,6l22,81.4l-0.8,0.2l1.5,1.5l0.5-2l-0.8,0.2L45.1,6.5
	L72.2,83l-0.7,0.3l1.6,1.4l0.4-2.1l-0.7,0.3L45.8,7z"/>
</svg>
