<svg width="479" height="96" viewBox="0 0 479 96" fill="none" xmlns="http://www.w3.org/2000/svg">
<path d="M66.9211 76.8872C69.7398 72.1128 72.1626 67.0956 74.1632 61.8904C74.6314 65.1237 74.823 68.3942 74.7356 71.663C74.7436 77.0652 74.2351 82.4549 73.2175 87.7515C64.7832 92.0277 55.4878 94.1225 46.1156 93.8593C22.9956 93.8593 0 78.7327 0 49.1291C0 22.3066 20.5566 4.63284 46.464 4.63284C55.6689 4.45007 64.7979 6.40289 73.1926 10.3507C73.1926 12.43 73.541 14.6134 73.541 18.6419C73.6244 23.6011 73.1144 28.5514 72.0229 33.3785C70.0247 27.9059 67.1925 22.8067 63.636 18.278C60.1269 14.0155 54.4029 11.3123 46.2151 11.3123C27.2015 11.3123 13.862 26.3089 13.862 48.869C13.862 73.5083 30.3123 87.2835 47.2355 87.2835C57.3147 87.3875 62.2175 84.2166 66.9211 76.8872Z" fill="#1A1212"/>
<path d="M98.5278 37.0132C101.284 36.8412 104.041 37.3492 106.574 38.4961C109.108 39.6429 111.347 41.3966 113.112 43.6149C115.734 47.5741 117.045 52.3203 116.845 57.13V67.8643C116.845 71.6589 116.845 73.7123 117.069 77.7409C117.417 85.5382 119.284 89.3328 122.046 92.6076C121.401 92.7661 120.742 92.8532 120.08 92.8675C111.071 92.8675 107.811 89.0728 106.541 83.1209C103.505 90.4243 98.0052 93.8291 92.53 93.8291C85.0639 93.8291 80.2607 88.6309 80.2607 82.1332C80.2607 76.1553 83.297 72.3868 87.7268 69.3199C93.4781 66.0571 99.5982 63.5596 105.944 61.8863V57.2601C106.04 54.3933 105.158 51.584 103.455 49.3328C102.52 48.2507 101.363 47.4034 100.07 46.8543C98.7772 46.3052 97.3822 46.0686 95.9893 46.162C91.4333 46.2826 87.0493 48.0041 83.5458 51.0483C83.5707 42.2634 90.34 37.0132 98.5278 37.0132ZM105.994 67.1365C103.779 67.9941 101.912 68.8521 99.6975 69.9437C93.1522 73.1145 90.9373 76.6492 90.9373 79.9501C90.9155 80.6705 91.0374 81.3876 91.2953 82.0561C91.5531 82.7247 91.9413 83.33 92.4351 83.8335C92.9289 84.337 93.5176 84.7275 94.1637 84.9807C94.8099 85.2339 95.4994 85.344 96.1884 85.304C100.967 85.304 105.994 80.6777 105.994 72.3086V67.1365Z" fill="#1A1212"/>
<path d="M164.578 3.87527C165.043 6.1564 165.277 8.48259 165.275 10.8149C165.119 15.1613 163.921 19.3972 161.791 23.1346C157.336 12.4004 153.503 7.87796 148.7 7.87796C143.449 7.87796 139.144 13.0759 139.144 29.71V39.2748C143.673 39.2748 148.128 39.015 152.433 38.7811L149.745 46.1104H139.094V69.6322C139.094 74.3886 139.094 77.9233 139.442 80.9642C139.525 85.1991 141.196 89.2307 144.096 92.1921H142.578C138.845 92.1921 136.406 91.8282 133.718 91.8282C131.03 91.8282 128.94 92.1921 125.306 92.1921H124.162C126.645 89.024 128.008 85.0588 128.019 80.9642C128.268 77.1955 128.268 73.1667 128.268 69.3721V51.3346C128.268 46.5782 127.447 44.525 124.062 42.3158L124.634 41.588C128.019 37.3255 127.919 32.5692 129.313 25.7337C132.573 10.8669 139.94 1.22415 151.96 1.22415C156.311 1.01709 160.643 1.92742 164.578 3.87527V3.87527Z" fill="#1A1212"/>
<path d="M175.901 36.6768C188.146 36.6768 196.781 45.5916 196.781 57.4695C196.819 58.5318 196.744 59.5952 196.557 60.6403H161.317C161.112 61.6829 161.029 62.7475 161.069 63.8111C161.069 75.273 167.265 83.3302 177.17 83.3302C183.965 83.3302 189.216 80.1595 195.512 72.7261C195.164 85.5136 186.404 93.9347 175.777 93.9347C160.148 93.9347 149.994 81.1213 149.994 66.3845C149.994 49.2305 161.492 36.6768 175.901 36.6768ZM184.537 55.1042C184.413 46.9171 179.983 43.0184 174.134 43.0184C168.286 43.0184 163.408 48.2166 162.014 55.1042H184.537ZM173.437 0.523438L186.528 5.1759L170.401 32.2325L173.437 0.523438Z" fill="#1A1212"/>
<path d="M245.908 6.68648C250.687 6.68648 254.544 6.68674 259.099 6.29688C260.179 12.3748 260.729 18.5425 260.741 24.7243C260.803 25.7369 260.803 26.7524 260.741 27.765C258.28 23.7956 255.464 20.0797 252.329 16.6672C250.514 14.8508 248.26 13.5839 245.809 13.0024C242.976 12.3438 240.074 12.0641 237.173 12.1705C231.673 12.1705 230.976 13.1322 230.628 18.0185C230.279 21.7871 230.279 26.1798 230.279 30.5722V45.2051C234.236 45.2051 240.906 45.2049 244.639 44.7111C249.89 44.1133 252.678 41.6704 256.535 38.1357V39.4609C256.535 43.2556 256.187 45.205 256.187 48.012C256.187 50.819 256.535 52.8723 256.535 56.7709V57.9924C253.381 54.5015 249.188 52.2295 244.639 51.5467C240.906 51.0529 234.137 50.9229 230.279 50.9229V65.9197C230.279 70.1822 230.503 76.7838 230.752 79.201C231.325 85.1789 232.843 86.2704 238.094 86.2704C241.646 86.3555 245.198 86.1557 248.721 85.6727C250.424 85.4687 252.065 84.8854 253.533 83.9616C255.002 83.0379 256.263 81.7956 257.232 80.3187C259.099 77.7197 261.214 74.2108 264.698 68.4928C264.802 69.7459 264.843 71.0037 264.823 72.2613C264.728 79.0574 263.826 85.8151 262.135 92.3785C253.599 91.8847 239.363 91.7805 224.431 91.7805C221.619 91.7805 219.279 92.1444 214.725 92.1444H213.804C216.615 88.3374 218.098 83.6434 218.01 78.8371C218.359 74.7045 218.359 69.7145 218.359 65.426V33.0152C218.359 28.7527 218.359 23.7367 218.01 19.6042C218.098 14.7979 216.615 10.1039 213.804 6.29688H214.725C219.279 6.29688 221.619 6.68648 224.431 6.68648H245.908Z" fill="#1A1212"/>
<path d="M281.272 69.0873C281.272 72.856 281.397 77.1446 281.621 80.9132C281.623 84.9099 282.757 88.8166 284.881 92.1411H283.711C280.103 92.1411 278.46 91.7772 275.673 91.7772C272.885 91.7772 271.118 92.1411 267.261 92.1411H266.017C268.612 88.9892 269.988 84.9388 269.874 80.7832C270.223 77.0145 270.223 72.9859 270.223 69.0873V29.7111C270.223 26.0464 270.223 22.1479 269.874 18.4832C269.869 16.6418 269.456 14.8268 268.665 13.1806C267.875 11.5345 266.73 10.1021 265.32 8.99647C271.268 6.39739 275.275 4.60402 281.77 1.19922C281.322 10.4779 281.322 15.2342 281.198 23.2654L281.272 69.0873Z" fill="#1A1212"/>
<path d="M311.385 36.6758C323.63 36.6758 332.29 45.5906 332.29 57.4685C332.332 58.5321 332.249 59.5969 332.042 60.6393H296.802C296.596 61.6818 296.513 62.7465 296.553 63.8101C296.553 75.272 302.75 83.3292 312.679 83.3292C319.449 83.3292 324.7 80.1584 330.996 72.7251C330.648 85.5126 321.888 93.9337 311.261 93.9337C295.632 93.9337 285.478 81.1203 285.478 66.3834C285.478 49.2295 296.901 36.6758 311.385 36.6758ZM320.021 55.1032C320.021 46.9161 315.467 43.0174 309.643 43.0174C303.446 43.0174 298.892 48.2156 297.498 55.1032H320.021Z" fill="#1A1212"/>
<path d="M358.422 74.5728L364.718 60.6678C366.752 56.8478 367.95 52.605 368.228 48.2441C368.213 45.0451 367.286 41.9233 365.565 39.2773H367.207C369.547 39.2773 371.289 39.6413 373.504 39.6413C375.719 39.6413 376.764 39.2773 379.327 39.2773H381.094C379.327 42.8121 377.709 46.113 375.594 50.7394C373.852 54.5081 372.583 58.0428 371.04 61.4736L355.635 95.0016L341.175 61.4736C339.657 57.9389 338.139 53.6764 336.198 49.154C334.456 45.1254 333.709 43.046 331.868 39.2773H333.037C335.974 39.2773 337.841 39.6413 340.752 39.6413C343.664 39.6413 346.601 39.2773 349.164 39.2773H350.632C349.119 41.3954 348.252 43.9406 348.144 46.5809C348.144 49.18 349.189 52.8186 352.574 60.7198L358.422 74.5728Z" fill="#1A1212"/>
<path d="M403.941 36.6758C416.185 36.6758 424.846 45.5906 424.846 57.4685C424.887 58.5321 424.804 59.5969 424.597 60.6393H389.357C389.152 61.6818 389.068 62.7465 389.108 63.8101C389.108 75.272 395.305 83.3292 405.235 83.3292C412.004 83.3292 417.255 80.1584 423.552 72.7251C423.203 85.5126 414.443 93.9337 403.816 93.9337C388.187 93.9337 378.033 81.1203 378.033 66.3834C378.008 49.2295 389.456 36.6758 403.941 36.6758ZM412.576 55.1032C412.576 46.9161 408.022 43.0174 402.199 43.0174C396.002 43.0174 391.447 48.2156 390.054 55.1032H412.576Z" fill="#1A1212"/>
<path d="M474.67 69.2194C474.67 72.9881 474.67 77.0165 475.018 80.7852C474.909 84.9632 476.333 89.0267 479 92.1432H477.83C473.973 92.1432 471.758 91.7793 469.294 91.7793C466.83 91.7793 465.088 92.1432 461.704 92.1432H460.31C462.413 88.8137 463.513 84.9035 463.471 80.9153C463.695 77.1466 463.819 73.118 463.819 69.2194V56.224C463.819 50.0122 460.434 46.1135 454.934 46.1135C453.409 46.058 451.89 46.3331 450.472 46.9213C449.053 47.5094 447.767 48.3979 446.694 49.5308C445.621 50.6638 444.784 52.0166 444.236 53.504C443.688 54.9914 443.442 56.5813 443.511 58.1733V69.2714C443.511 73.0401 443.511 77.0687 443.86 80.9673C443.851 84.9656 444.986 88.8754 447.12 92.1952H445.95C442.342 92.1952 440.823 91.8313 438.011 91.8313C435.199 91.8313 433.457 92.1952 429.624 92.1952H428.455C431.033 89.0344 432.398 84.9879 432.287 80.8372C432.598 76.9909 432.723 73.1308 432.661 69.2714V65.4765C432.661 61.8378 432.536 58.3032 432.287 54.5085C431.939 49.6482 431.018 47.4391 427.733 45.2559C433.706 42.6568 438.609 40.2397 444.208 37.4587C443.735 41.3573 443.511 44.4242 443.387 47.855C446.547 41.3833 452.023 36.6268 459.041 36.6268C461.679 36.4946 464.302 37.117 466.626 38.427C468.95 39.7369 470.888 41.6846 472.231 44.0601C474.027 47.4481 474.888 51.2898 474.72 55.1583L474.67 69.2194Z" fill="#1A1212"/>
</svg>
