<svg width="57" height="14" viewBox="0 0 57 14" fill="none" xmlns="http://www.w3.org/2000/svg">
<path d="M11.9061 6.20067H15.9014C15.9014 5.58203 15.5751 2.97973 12.9649 2.97973C11.42 2.97973 9.682 4.27752 9.682 7.26311C9.682 9.63007 11.1203 11.1363 12.6585 11.1968C15.4752 11.3111 15.7216 8.3928 15.7216 8.3928H15.6217C15.4401 8.84814 15.1271 9.23782 14.7234 9.51122C14.3196 9.78463 13.8438 9.92912 13.3577 9.92594C11.5265 9.8318 11.36 7.74054 11.36 6.7319C11.3635 6.58861 11.4228 6.45249 11.5251 6.35305C11.6273 6.25361 11.7642 6.19886 11.9061 6.20067ZM12.865 3.2487C14.1501 3.18818 14.2567 4.95668 14.2567 5.30635C14.2567 5.65601 14.1967 5.80394 13.8571 5.80394H11.4666C11.4666 5.80394 11.4067 3.31594 12.865 3.2487ZM22.9865 9.83852C22.9757 10.2709 23.0599 10.7003 23.2328 11.096H21.2352C21.4084 10.712 21.4948 10.294 21.4882 9.87214V5.79722C21.4882 4.57339 21.1087 4.0758 20.3496 3.94131C20.1038 3.89162 19.8498 3.9015 19.6086 3.97014C19.3673 4.03878 19.1456 4.16422 18.9617 4.33617C18.7778 4.50812 18.6369 4.72167 18.5506 4.95929C18.4642 5.1969 18.4349 5.45181 18.4651 5.70308V9.83852C18.4544 10.2716 18.5409 10.7015 18.7181 11.096H16.7204C16.8976 10.7015 16.9841 10.2716 16.9735 9.83852V4.79529C16.9771 4.45461 16.848 4.12614 16.6139 3.88079C17.2704 3.75582 17.8927 3.48981 18.4385 3.10078H18.4917V4.32459C18.4917 4.32459 18.6116 4.21028 18.9246 3.88752C19.2221 3.48803 19.64 3.19696 20.1155 3.05811C20.591 2.91927 21.0983 2.94016 21.561 3.11766C22.0238 3.29516 22.4169 3.61966 22.6812 4.04229C22.9454 4.46492 23.0666 4.96281 23.0264 5.461L22.9865 9.83852ZM8.56331 1.15744V9.93939C8.56366 10.3382 8.64762 10.7323 8.80968 11.096H6.5124C6.6825 10.7181 6.76886 10.3074 6.76544 9.89232V5.25255H2.04428V9.85869C2.03661 10.285 2.12306 10.7076 2.29732 11.096H0C0.161654 10.7414 0.247859 10.3566 0.253041 9.96628V1.13727C0.247034 0.74492 0.160888 0.358054 0 0.000871496H2.29732C2.12378 0.39182 2.03739 0.816487 2.04428 1.24486V4.75495H6.74545V1.20452C6.74814 0.787393 6.66183 0.374573 6.49241 -0.00585938H8.78973C8.63494 0.361782 8.55781 0.757992 8.56331 1.15744ZM30.8173 9.83852C30.8066 10.2709 30.8907 10.7003 31.0637 11.096H29.066C29.2392 10.712 29.3256 10.294 29.3191 9.87214V5.79722C29.3191 4.57339 28.9395 4.0758 28.1803 3.94131C27.9346 3.89162 27.6807 3.9015 27.4394 3.97014C27.1982 4.03878 26.9765 4.16422 26.7926 4.33617C26.6086 4.50812 26.4678 4.72167 26.3814 4.95929C26.2951 5.1969 26.2658 5.45181 26.2959 5.70308V9.83852C26.2852 10.2716 26.3717 10.7015 26.5489 11.096H24.5513C24.7285 10.7015 24.815 10.2716 24.8043 9.83852V4.79529C24.808 4.45461 24.6788 4.12614 24.4447 3.88079C25.1012 3.75582 25.7234 3.48981 26.2692 3.10078H26.3226V4.32459L26.7554 3.88752C27.0529 3.48803 27.4708 3.19696 27.9463 3.05811C28.4218 2.91927 28.9292 2.94016 29.3919 3.11766C29.8546 3.29516 30.2477 3.61966 30.512 4.04229C30.7763 4.46492 30.8974 4.96281 30.8572 5.461L30.8173 9.83852ZM43.5823 7.2026C43.7963 7.41512 43.9601 7.67358 44.0615 7.95879C44.163 8.244 44.1995 8.54863 44.1683 8.85005C44.115 9.72421 43.5024 11.0422 41.5048 11.1296C40.653 11.1758 39.8034 11.0047 39.0343 10.632V9.02489C39.0343 9.02489 40.2863 10.9413 41.9044 10.6791C42.6701 10.558 42.9698 10.1142 42.9898 9.6099C43.043 8.54746 41.9243 7.93554 41.2251 7.52536C39.5737 6.55706 39.081 5.98549 39.0543 5.15168C38.9878 3.36302 40.7324 3.02008 41.3849 2.98645C42.06 2.93827 42.738 3.02043 43.3826 3.22853L43.4625 4.65409C43.3094 4.33132 42.204 3.04025 40.9921 3.36974C40.788 3.42035 40.6085 3.54313 40.4863 3.71584C40.3642 3.88855 40.3074 4.09975 40.3262 4.31114C40.3662 5.03737 40.992 5.49463 41.7578 5.95861C42.4127 6.29872 43.0252 6.71631 43.5823 7.2026ZM49.4222 7.2026C49.6327 7.41761 49.7941 7.67642 49.8953 7.96097C49.9966 8.24551 50.0351 8.54893 50.0082 8.85005C49.9549 9.72421 49.3423 11.0422 47.3446 11.1296C46.4927 11.1769 45.6429 11.0058 44.8742 10.632V9.02489C44.8742 9.02489 46.1261 10.9413 47.7375 10.6791C48.02 10.6743 48.29 10.5611 48.4928 10.3625C48.6957 10.1639 48.816 9.89485 48.8295 9.6099C48.8761 8.54746 47.7575 7.93554 47.0583 7.52536C45.4069 6.55706 44.9208 5.98549 44.8875 5.15168C44.8209 3.36302 46.5656 3.02008 47.2248 2.98645C47.8999 2.93643 48.5782 3.01863 49.2225 3.22853L49.309 4.65409C49.1559 4.33132 48.0438 3.04025 46.8319 3.36974C46.6271 3.41908 46.4469 3.54156 46.3245 3.71459C46.2021 3.88761 46.1458 4.09949 46.166 4.31114C46.2059 5.03737 46.8319 5.49463 47.5977 5.95861C48.2525 6.29872 48.865 6.71631 49.4222 7.2026ZM56.201 4.87599L53.4841 12.3669C53.3596 12.7819 53.1239 13.1542 52.8032 13.4425C52.4824 13.7309 52.0889 13.9241 51.6662 14.0009C51.3256 14.0468 50.9793 14.0239 50.6475 13.9336L51.067 12.777C52.0592 13.1536 52.7583 12.851 53.018 12.34C53.1375 12.0726 53.2032 11.7839 53.2112 11.4907C53.2192 11.1975 53.1694 10.9056 53.0646 10.632L50.8139 4.58012C50.6762 4.09412 50.4504 3.63812 50.1481 3.23526H52.2722C52.3186 3.59454 52.392 3.94972 52.4919 4.2977L54.23 9.19971L55.7881 4.88943C56.0045 4.36404 56.1262 3.80387 56.1476 3.23526H57.0266C56.6929 3.75956 56.4161 4.31867 56.201 4.90288V4.87599ZM34.1534 6.22085H38.1487C38.1487 5.60222 37.8224 2.99991 35.2188 2.99991C33.6673 2.99991 31.9293 4.29769 31.9293 7.28328C31.9293 9.65024 33.3743 11.1565 34.9059 11.217C37.7226 11.3313 37.9689 8.41297 37.9689 8.41297H37.869C37.6874 8.86832 37.3744 9.25799 36.9707 9.53139C36.5669 9.8048 36.0911 9.94929 35.605 9.94611C33.7738 9.85197 33.6073 7.76071 33.6073 6.75207C33.6073 6.67966 33.6215 6.60796 33.649 6.54106C33.6764 6.47416 33.7166 6.41337 33.7673 6.36217C33.818 6.31097 33.8782 6.27036 33.9444 6.24265C34.0107 6.21494 34.0817 6.20067 34.1534 6.20067V6.22085ZM35.1123 3.26888C36.3974 3.20836 36.5039 4.97686 36.5039 5.32652C36.5039 5.67618 36.444 5.82411 36.1044 5.82411H33.7206C33.7206 5.82411 33.6673 3.31594 35.1123 3.2487V3.26888Z" fill="#1A1212"/>
</svg>
