<svg width="1195" height="693" viewBox="0 0 1195 693" fill="none" xmlns="http://www.w3.org/2000/svg">
<g clip-path="url(#clip0_157_4974)">
<path d="M656.525 369.814C646.183 380.374 633.318 388.123 619.149 392.328C613.484 393.779 607.501 393.336 602.111 391.067C596.722 388.798 592.222 384.828 589.3 379.763L619.974 350.509C658.254 314.265 670.321 295.683 666.959 279.864C663.597 264.045 649.58 257.414 631.982 261.154C620.71 264.169 610.182 269.48 601.059 276.753C591.935 284.027 584.414 293.107 578.965 303.424C569.441 318.909 564.189 336.64 563.744 354.814C549.7 368.959 536.115 383.317 522.789 394.52C514.339 402.404 504.772 408.999 494.398 414.092C494.092 409.806 493.532 405.543 492.719 401.325C489.167 384.616 479.805 367.799 463.093 364.531C466.942 359.786 471.299 354.52 475.255 348.822C497.418 320.861 525.032 284.507 548.466 248.422C562.355 227.67 574.728 205.942 585.489 183.409C595.79 161.379 600.148 142.989 597.773 131.817C597.174 128.434 595.877 125.213 593.966 122.359C592.055 119.505 589.572 117.079 586.673 115.236C583.774 113.394 580.523 112.174 577.127 111.656C573.731 111.137 570.265 111.331 566.948 112.224C551.568 116.548 537.915 125.554 527.887 137.991C514.178 153.433 502.505 170.57 493.154 188.981C476.78 219.695 462.841 251.646 451.464 284.541C439.854 317.115 429.932 350.266 421.736 383.862C412.14 393.652 397.748 408.594 383.77 421.589C371.226 433.555 359.934 444.119 352.519 445.695C345.104 447.271 341.945 441.64 340.765 429.284C339.681 414.358 341.438 399.363 345.942 385.092C350.594 368.086 356.742 351.796 361.299 336.774L343.476 330.228C341.096 335.074 339.107 339.321 337.242 344.161C331.324 340.198 324.634 337.53 317.612 336.333C310.59 335.137 303.395 335.438 296.498 337.217C284.264 340.82 272.881 346.848 263.026 354.944C253.172 363.039 245.048 373.035 239.139 384.337C237.857 386.573 236.774 388.766 235.612 391.079C235.612 391.079 235.019 391.205 234.822 391.248C190.309 435.12 164.893 461.396 146.985 477.293C136.222 488.301 122.585 496.069 107.626 499.712C89.039 503.663 76.1022 492.876 71.2688 470.136C62.2953 427.919 78.6482 375.049 105.153 330.561C131.657 286.073 166.307 251.221 197.846 244.518C211.687 241.575 220.073 246.51 222.91 259.857C224.221 271.872 223.004 284.028 219.336 295.544C213.635 315.63 205.159 334.822 194.152 352.565L211.756 362.463C223.19 342.955 232.263 322.156 238.784 300.504C243.258 285.986 244.48 270.662 242.366 255.618C236.839 229.616 220.64 219.522 194.538 225.07C158.847 232.656 117.704 271.472 88.4027 320.792C59.1016 370.111 42.3732 428.021 52.2293 474.39C59.7107 509.587 81.1589 525.902 112.204 519.303C130.695 515.209 147.558 505.728 160.664 492.056C174.846 479.534 193.789 460.731 222.957 431.694C221.732 440.372 221.965 449.193 223.649 457.794C228.293 479.644 242.319 488.753 261.797 484.613C277.616 481.25 293.145 465.342 314.318 430.772C316.887 426.815 319.372 422.464 322.103 418.783C321.799 423.434 321.994 428.104 322.686 432.713C325.252 456.451 339.471 468.413 356.575 464.777C366.462 462.676 380.896 451.34 397.031 436.337L412.807 421.101C404.665 452.799 396.882 484.731 391.144 513.644C383.711 551.598 380.332 583.833 384.262 602.321C384.589 606.047 385.719 609.658 387.575 612.904C389.431 616.151 391.969 618.957 395.013 621.128C398.058 623.3 401.536 624.786 405.211 625.484C408.885 626.181 412.667 626.074 416.296 625.17C438.146 620.526 462.676 583.278 478.527 534.854C489.213 502.479 495.091 468.711 495.975 434.63C510.886 429.264 524.477 420.774 535.839 409.726C546.02 400.742 556.633 389.909 567.601 378.794C570.889 390.293 578.454 400.096 588.743 406.192C599.033 412.287 611.265 414.212 622.929 411.572C640.304 406.775 656.145 397.571 668.916 384.85C685.531 370.092 701.312 354.421 716.188 337.912L702.959 324.293C685.423 341.454 670.29 357.277 656.525 369.814ZM298.062 420.897C283.776 444.6 270.24 463.081 257.684 465.75C249.379 467.515 245.129 463.562 242.881 452.983C239.945 432.218 244.589 411.091 255.961 393.471C260.482 384.448 266.767 376.425 274.445 369.876C282.123 363.327 291.039 358.386 300.662 355.346C305.569 353.747 310.818 353.51 315.849 354.661C320.88 355.812 325.504 358.308 329.228 361.881C320.081 382.184 309.672 401.895 298.062 420.897ZM469.766 291.398C480.778 259.442 494.251 228.386 510.061 198.511C518.906 181.574 529.728 165.746 542.302 151.358C549.725 141.828 559.863 134.773 571.378 131.123C572.261 130.831 573.196 130.733 574.121 130.835C575.045 130.937 575.937 131.236 576.735 131.714C577.532 132.192 578.218 132.836 578.744 133.603C579.271 134.369 579.626 135.24 579.785 136.156C581.656 144.956 576.415 159.193 568.784 175.799C558.384 197.552 546.481 218.555 533.164 238.655C509.619 273.73 482.401 309.999 461.141 337.355C457.272 342.001 453.819 346.662 450.855 350.702C456.479 330.493 462.604 310.694 469.745 291.299L469.766 291.398ZM460.528 528.45C448.046 566.96 430.629 602.179 412.536 606.025C407.395 607.118 404.322 603.844 403.019 597.714C399.489 581.104 403.45 551.122 409.989 516.251C415.451 487.5 423.581 454.771 431.4 422.522C437.254 428.418 444.409 432.861 452.29 435.493C460.171 438.125 468.559 438.872 476.781 437.676C475.313 468.479 469.841 498.96 460.507 528.351L460.528 528.45ZM476.516 418.926C458.413 420.294 444.586 414.552 441.728 401.106C441.236 399.256 441.128 397.325 441.409 395.431C441.691 393.537 442.356 391.72 443.365 390.093C444.374 388.466 445.704 387.062 447.275 385.968C448.846 384.873 450.625 384.111 452.501 383.729C465.947 380.871 471.983 393.228 474.631 405.686C475.485 410.03 476.107 414.417 476.495 418.827L476.516 418.926ZM595.497 313.137C599.668 305.06 605.455 297.927 612.5 292.181C619.545 286.435 627.696 282.199 636.447 279.736C642.874 278.37 647.51 279.761 648.393 283.914C649.99 291.428 636.321 308.8 607.338 336.764L583.114 359.893C582.56 343.402 586.858 327.11 595.476 313.038L595.497 313.137Z" fill="#F7F5F0"/>
<path d="M1109.48 68.1047C1111.56 48.2355 1098.12 35.0754 1079.54 39.0262C1068.86 41.2959 1055.31 52.442 1034.72 80.9991C1016.68 105.501 991.499 144.541 955.98 201.072L972.863 211.95C1008.4 155.518 1032.74 117.38 1050.84 92.6594C1066.17 71.4214 1074.98 60.3525 1082.88 58.6713C1088.03 57.5785 1090.6 60.9574 1089.9 66.3779C1083.31 97.1173 1074.85 127.423 1064.54 157.122C1049.98 202.378 1031.95 257.053 1015.94 307.679L879.11 336.763C894.578 289.455 911.076 238.724 924.149 196.677C935.001 165.68 943.837 134.014 950.603 101.876C952.683 82.0068 939.143 68.8679 920.654 72.7977C909.976 75.0674 896.333 86.2343 875.743 114.791C857.7 139.294 832.518 178.334 797.099 234.843L813.882 245.743C849.421 189.311 873.762 151.173 891.861 126.452C907.286 105.193 915.995 94.1448 923.905 92.4636C929.046 91.3708 931.723 94.7286 930.916 100.17C924.383 130.921 915.914 161.23 905.563 190.914C891.101 236.149 872.967 290.845 857.063 341.45L783.999 356.98L788.202 376.754L1129.3 304.251L1125.1 284.478L1038.19 302.95C1053.66 255.641 1070.15 204.91 1083.33 162.843C1094.14 131.881 1102.88 100.231 1109.48 68.1047Z" fill="#F7F5F0"/>
<path d="M662.368 138.318L603.837 213.803L619.812 226.19L678.343 150.705L662.368 138.318Z" fill="#F7F5F0"/>
</g>
<defs>
<clipPath id="clip0_157_4974">
<rect width="1120.54" height="469.403" fill="white" transform="translate(0.811523 232.974) rotate(-12)"/>
</clipPath>
</defs>
</svg>
