<svg width="28" height="38" viewBox="0 0 28 38" fill="none" xmlns="http://www.w3.org/2000/svg">
<ellipse cx="13.5" cy="19" rx="12.5" ry="18" fill="#F7F5F0"/>
<path d="M7.34165 29.4723H6.97234C7.48516 29.081 7.90781 28.584 8.21165 28.015C8.5155 27.446 8.69337 26.8183 8.73329 26.1745C8.79924 25.2182 8.7993 24.0706 8.7993 23.1142V14.9292C8.7993 13.9399 8.73334 12.9506 8.70696 12.4889C8.58164 10.9126 7.83635 10.6026 6.22705 9.98263C8.27165 9.14501 9.72263 8.49865 11.8925 7.41699C11.7672 9.52095 11.7343 10.8796 11.7343 13.2276V23.1208C11.7343 24.0772 11.7342 25.2248 11.8002 26.1811C11.7992 26.8334 11.9595 27.4757 12.2668 28.0511C12.574 28.6264 13.0187 29.1169 13.5612 29.4789H13.2513C12.2026 29.4789 10.9032 29.3865 10.2239 29.3865C9.54454 29.3865 8.36395 29.4723 7.34165 29.4723Z" fill="#1A1212"/>
<path d="M15.3747 29.4723H15.0053C15.5181 29.081 15.9408 28.584 16.2447 28.015C16.5485 27.446 16.7264 26.8183 16.7663 26.1745C16.8257 25.2182 16.8257 24.0706 16.8257 23.1142V14.9292C16.8257 13.9399 16.7663 12.9506 16.7333 12.4889C16.6146 10.9126 15.8693 10.6026 14.26 9.98263C16.3046 9.14501 17.7557 8.49865 19.919 7.41699C19.8003 9.52095 19.7673 10.8796 19.7673 13.2276V23.1208C19.7673 24.0772 19.7673 25.2248 19.8266 26.1811C19.8264 26.834 19.9877 27.4767 20.2961 28.0521C20.6045 28.6275 21.0504 29.1176 21.5942 29.4789H21.2842C20.2289 29.4789 18.9296 29.3865 18.2503 29.3865C17.571 29.3865 16.397 29.4723 15.3747 29.4723Z" fill="#1A1212"/>
<path d="M13.9106 38C11.4825 37.9816 9.12955 37.1555 7.22279 35.652C5.0422 33.9054 3.36094 31.6144 2.34872 29.0104C1.08875 25.8442 0.474337 22.4582 0.541565 19.0512C0.472979 15.6319 1.08502 12.233 2.34212 9.05243C3.36173 6.44505 5.04129 4.14732 7.21619 2.38441C9.10139 0.842431 11.4619 0 13.8974 0C16.3329 0 18.6934 0.842431 20.5786 2.38441C22.7629 4.15099 24.4494 6.45588 25.4724 9.07222C26.7339 12.2356 27.3484 15.6198 27.2796 19.0248C27.3497 22.4213 26.7351 25.7972 25.4724 28.951C24.4509 31.557 22.7607 33.8478 20.572 35.5927C18.6839 37.1186 16.3381 37.9664 13.9106 38ZM13.9106 1.99527C11.9099 2.01268 9.97459 2.71049 8.42313 3.97391C6.52248 5.52814 5.05688 7.54821 4.16908 9.8373C3.01195 12.7752 2.45143 15.9141 2.52021 19.071C2.45422 22.2104 3.01477 25.3316 4.16908 28.2519C5.04712 30.5371 6.51216 32.5505 8.41653 34.0889C9.9622 35.3556 11.899 36.0479 13.8974 36.0479C15.8958 36.0479 17.8325 35.3556 19.3782 34.0889C21.2889 32.5505 22.7625 30.5379 23.6521 28.2519C24.8096 25.3417 25.3704 22.2285 25.3009 19.0974C25.3689 15.9577 24.8083 12.8362 23.6521 9.91644C22.7606 7.61498 21.2854 5.58519 19.3716 4.02668C17.8314 2.75488 15.9076 2.03924 13.9106 1.99527V1.99527Z" fill="#1A1212"/>
</svg>
