<svg width="285" height="133" viewBox="0 0 285 133" fill="none" xmlns="http://www.w3.org/2000/svg">
<path d="M59.5322 94.5027L79.5627 94.4787C79.5627 91.4352 77.9228 78.5833 64.8955 78.5833C57.1785 78.5833 48.4968 85.002 48.4968 99.7387C48.4968 111.413 55.6977 118.841 63.3569 119.154C77.455 119.726 78.6801 105.302 78.6801 105.302H78.1977C78.1977 105.302 75.0627 113.307 66.8778 112.894C57.7138 112.413 56.783 102.09 56.8746 97.128C56.8847 96.4307 57.1687 95.7652 57.6656 95.2743C58.1625 94.7835 58.8326 94.5065 59.5322 94.5027ZM64.3071 79.9151C70.746 79.617 71.2814 88.334 71.2765 90.089C71.2765 91.4977 70.963 92.5363 69.2797 92.5363H57.3424C57.3424 92.5363 57.0868 80.2468 64.3071 79.9151ZM114.912 112.432C114.912 116.307 116.17 118.682 116.17 118.682H106.071C106.071 118.682 107.296 116.394 107.33 112.615V92.493C107.33 86.4396 105.434 83.9875 101.653 83.324C97.1672 82.5355 92.209 85.1847 92.209 92.0122V112.442C92.209 116.317 93.4678 118.692 93.4678 118.692H83.3778C83.3778 118.692 84.6367 116.336 84.6367 112.442V87.5599C84.6538 85.8753 84.0019 84.2524 82.8232 83.0451C82.8232 83.0451 88.1576 82.146 91.9485 79.1987H92.2331V85.2376L94.3939 83.0788C99.4244 78.064 105.892 77.6024 109.929 80.4536C113.064 82.6749 114.897 86.3098 114.897 90.8438L114.912 112.432ZM42.8103 69.6114V112.946C42.8171 114.918 43.2411 116.866 44.0547 118.663H32.5707C33.4107 116.784 33.8304 114.744 33.8006 112.687V89.8245H10.2299V112.538C10.254 116.351 11.4887 118.663 11.4887 118.663H0C0.799148 116.904 1.22289 114.998 1.24437 113.067V69.4912C1.22289 67.5599 0.799148 65.6541 0 63.8946H11.4887C11.4887 63.8946 10.254 66.2073 10.2299 70.0201V87.358H33.8199V69.8662C33.8429 67.809 33.4167 65.7713 32.5707 63.8946H44.0547C43.2411 65.6918 42.8171 67.6398 42.8103 69.6114ZM154.061 112.432C154.061 116.307 155.32 118.682 155.32 118.682H145.215C145.215 118.682 146.436 116.394 146.474 112.615V92.493C146.474 86.4396 144.579 83.9875 140.797 83.324C136.312 82.5355 131.354 85.1847 131.354 92.0122V112.442C131.354 116.317 132.613 118.692 132.613 118.692H122.547C122.547 118.692 123.805 116.336 123.805 112.442V87.5599C123.823 85.8753 123.171 84.2524 121.992 83.0451C121.992 83.0451 127.326 82.146 131.117 79.1987H131.402V85.2376L133.568 83.0788C138.574 78.0688 145.042 77.588 149.074 80.4392C152.209 82.6605 154.042 86.2954 154.042 90.8294L154.061 112.432ZM217.915 99.4262C218.97 100.488 219.779 101.766 220.285 103.172C220.792 104.579 220.984 106.078 220.847 107.566C220.582 111.894 217.375 118.37 207.531 118.827C203.267 119.06 199.014 118.212 195.169 116.36V108.412C195.169 108.412 201.439 117.889 209.498 116.61C213.357 116 214.828 113.817 214.949 111.321C215.199 106.105 209.595 103.071 206.108 101.047C197.855 96.2673 195.405 93.4402 195.251 89.3437C194.918 80.4873 203.648 78.814 206.923 78.6554C213.087 78.3621 216.936 79.843 216.936 79.843L217.341 86.8868C216.588 85.2665 211.032 78.915 204.974 80.5449C202.119 81.3142 201.391 83.5211 201.487 85.1655C201.704 88.7667 204.733 91.0361 208.645 93.3152C212.947 95.8105 216.169 97.5847 217.915 99.4262ZM247.1 99.4262C248.155 100.488 248.964 101.766 249.47 103.172C249.977 104.579 250.169 106.078 250.032 107.566C249.767 111.894 246.559 118.37 236.715 118.827C232.452 119.06 228.199 118.212 224.354 116.36V108.412C224.354 108.412 230.624 117.889 238.683 116.61C242.542 116 243.989 113.817 244.133 111.321C244.384 106.105 238.78 103.071 235.293 101.047C227.04 96.2673 224.59 93.4402 224.436 89.3437C224.103 80.4873 232.833 78.814 236.108 78.6554C242.272 78.3621 246.121 79.843 246.121 79.843L246.526 86.8868C245.768 85.2665 240.217 78.915 234.159 80.5449C231.304 81.3142 230.576 83.5211 230.672 85.1655C230.889 88.7667 233.918 91.0361 237.83 93.3152C242.132 95.8105 245.354 97.5847 247.1 99.4262ZM281.011 87.9397L281.035 87.8628C276.444 100.364 268.09 123.091 267.444 124.818C265.191 130.876 260.691 132.583 258.352 132.89C256.647 133.112 254.915 132.997 253.254 132.554L255.362 126.847C260.305 128.722 263.826 127.207 265.114 124.678C266.228 122.495 266.431 119.346 265.336 116.259L254.098 86.4877C252.13 81.2517 250.635 79.7805 250.635 79.7805H261.246C261.478 81.5551 261.843 83.3101 262.336 85.0309L271.018 109.239L278.817 87.9397C280.77 82.4009 280.63 79.766 280.63 79.766H285C283.381 82.3405 282.044 85.0807 281.011 87.9397ZM170.778 94.5027L190.809 94.4787C190.809 91.4352 189.174 78.5833 176.146 78.5833C168.429 78.5833 159.748 85.002 159.748 99.7387C159.748 111.413 166.944 118.841 174.603 119.154C188.701 119.726 189.926 105.302 189.926 105.302H189.444C189.444 105.302 186.314 113.307 178.129 112.894C168.965 112.413 168.029 102.09 168.121 97.128C168.133 96.4315 168.418 95.7674 168.914 95.277C169.411 94.7867 170.079 94.5089 170.778 94.5027ZM175.558 79.9151C181.992 79.617 182.532 88.334 182.527 90.089C182.527 91.4977 182.209 92.5363 180.531 92.5363H168.579C168.579 92.5363 168.323 80.2468 175.548 79.9151H175.558ZM118.77 28.065C117.984 29.2189 117.531 29.767 117.69 30.6565C117.69 30.7575 117.627 30.8055 117.569 30.719C117.292 30.1594 117.189 29.5296 117.275 28.9112C117.502 26.9879 119.662 24.6657 120.458 23.906C120.628 23.7281 120.847 23.6048 121.088 23.5517C121.328 23.4986 121.579 23.5182 121.809 23.6079C123.242 22.2096 124.998 21.1828 126.921 20.6173C126.989 20.6173 127.022 20.675 126.965 20.7182C125.278 22.2359 123.721 23.8908 122.31 25.6657C122.115 25.8383 121.871 25.9463 121.612 25.9747C121.353 26.0031 121.091 25.9506 120.863 25.8244C120.036 26.4401 119.327 27.199 118.77 28.065ZM148.64 5.61611C149.784 3.36282 151.723 1.6109 154.085 0.697466C156.29 -0.137421 158.708 -0.22529 160.968 0.447445C162.068 0.788817 165.743 2.24085 163.408 3.25535C161.426 4.1208 159.473 5.14012 159.313 7.86629C159.227 9.40006 159.796 9.78951 160.842 10.2078C161.055 9.80874 161.127 9.77509 161.325 9.3664C161.083 9.0739 160.882 8.75049 160.727 8.40479C160.718 8.38969 160.714 8.3721 160.716 8.35463C160.717 8.33716 160.725 8.32073 160.737 8.30778C160.749 8.29483 160.764 8.28605 160.782 8.28274C160.799 8.27943 160.817 8.28176 160.833 8.28939L162.28 9.07311C162.439 9.15965 162.391 9.26062 162.323 9.38563C161.994 9.93121 161.7 10.4964 161.441 11.0781C161.185 11.7031 161.137 11.5589 160.625 11.2656C160.187 11.03 159.757 10.8329 159.405 10.6309C158.826 11.1117 157.847 12.3907 157.727 14.6649C157.727 14.737 157.621 14.7322 157.601 14.6649C156.54 11.631 158.359 9.82317 158.359 9.82317C157.882 8.59041 157.83 7.23462 158.21 5.96909C158.591 4.70355 159.383 3.60008 160.461 2.83225C157.24 1.08692 152.349 1.90429 150.217 5.12569C150.703 5.32386 151.122 5.65776 151.423 6.0873C151.466 6.1498 151.423 6.21712 151.35 6.19308C150.569 5.95869 149.745 5.90121 148.939 6.0248C148.63 6.0825 148.447 6.01518 148.64 5.63535V5.61611ZM155.976 5.39975C155.932 5.47187 155.826 5.73151 156.222 5.95749C156.311 6.00275 156.398 6.05249 156.482 6.10654C156.704 6.24597 156.728 6.33251 156.584 6.55368C156.506 6.67388 156.497 6.67869 156.41 6.80851C156.323 6.93833 156.338 6.93833 156.241 7.09219C156.092 7.32779 156.029 7.34221 155.793 7.19316C155.662 7.10661 155.672 7.10181 155.547 7.02488C155.421 6.94795 155.421 6.95756 155.252 6.85179C155.084 6.74601 155.002 6.64023 155.156 6.40463C155.233 6.27962 155.248 6.27962 155.33 6.15461C155.595 5.74112 155.387 5.58245 155.33 5.53918C155.272 5.49591 155.04 5.35648 154.765 5.7844C154.683 5.90941 154.688 5.91902 154.611 6.04884C154.471 6.2652 154.389 6.28443 154.158 6.14019C153.926 5.99595 153.998 6.0248 153.878 5.94787C153.757 5.87094 153.757 5.88055 153.622 5.79401C153.405 5.65457 153.386 5.56803 153.531 5.34686C153.675 5.12569 153.632 5.20743 153.719 5.07761C153.805 4.94779 153.801 4.93337 153.878 4.81317C154.018 4.5968 154.095 4.57276 154.326 4.71701C154.461 4.80355 154.452 4.80836 154.572 4.8949C154.944 5.15454 155.146 4.94298 155.18 4.8949C155.214 4.84682 155.33 4.56796 154.939 4.34198C154.809 4.26505 154.809 4.27466 154.674 4.18812C154.447 4.04387 154.428 3.97176 154.577 3.74097C154.65 3.62558 154.664 3.62077 154.751 3.48614C154.838 3.35152 154.818 3.35633 154.92 3.20728C155.021 3.05823 155.137 2.95725 155.368 3.1063C155.498 3.18804 155.489 3.19285 155.609 3.27459C155.73 3.35632 155.74 3.3419 155.904 3.44768C156.068 3.55346 156.15 3.66885 156.005 3.89482C155.923 4.01983 155.904 4.01503 155.831 4.14004C155.561 4.62085 155.831 4.76028 155.831 4.76028C155.831 4.76028 156.077 4.95741 156.4 4.51026C156.487 4.39005 156.473 4.37563 156.555 4.25062C156.714 4.0006 156.752 3.9958 157.003 4.15446C157.172 4.26024 157.162 4.26985 157.283 4.35159C157.404 4.43333 157.408 4.41891 157.539 4.50065C157.756 4.64008 157.78 4.72662 157.635 4.9526C157.539 5.10165 157.534 5.08723 157.447 5.22185C157.36 5.35648 157.36 5.36609 157.288 5.48149C157.148 5.69785 157.061 5.72189 156.839 5.57765C156.753 5.5245 156.669 5.46672 156.588 5.40456C156.217 5.14973 156.024 5.35167 155.976 5.41898V5.39975ZM145.611 10.5059C144.613 8.48652 145.129 7.45279 145.162 7.5778C145.447 8.78943 146.127 9.15004 146.436 9.64527C146.567 9.84867 146.685 10.0607 146.788 10.2799C148.876 9.82797 153.878 8.73654 154.331 8.64519C154.785 8.55384 155.141 10.4001 154.756 10.4915C154.162 10.6357 149.141 11.7031 147.096 12.1358C146.73 16.0304 143.817 17.9344 141 18.8239C140.179 19.0643 139.34 19.2412 138.492 19.3527C137.822 18.1546 137.311 16.8745 136.973 15.5448C137.648 16.1412 138.47 16.5478 139.355 16.7227C140.863 16.9325 142.397 16.5909 143.672 15.7611C146.132 13.8475 145.992 11.2367 145.611 10.5251V10.5059ZM114.082 17.9728C113.865 16.9728 113.932 16.5977 114.285 16.391C114.477 16.2804 114.767 16.3621 114.868 16.7804C114.897 16.9151 114.955 17.2035 114.989 17.3574C115.061 17.6699 115.109 17.7709 115.273 17.7613C115.553 17.7372 116.011 16.9583 116.923 16.7612C116.923 16.7612 119.257 16.2804 122.759 15.5255C123.28 15.4101 123.241 14.737 123.492 14.4389C123.743 14.1408 123.974 14.362 124.066 14.7803C124.095 14.9149 124.148 15.2034 124.182 15.3524C124.249 15.6698 124.302 15.7707 124.466 15.7563C124.746 15.7563 125.199 14.963 126.111 14.7659L136.813 12.4388C136.864 11.6192 137.026 10.8104 137.296 10.0347C137.311 10.0078 137.335 9.98647 137.364 9.97403C137.392 9.9616 137.424 9.95867 137.454 9.96569C137.485 9.97271 137.512 9.9893 137.532 10.013C137.552 10.0367 137.564 10.0662 137.566 10.0972C137.566 10.9867 137.754 11.8666 138.222 11.9051C138.69 11.9435 138.55 11.7945 138.941 11.7704C139.235 11.7704 139.124 12.006 139.616 11.9291C139.973 11.8714 139.852 11.6887 140.31 11.6021C140.547 11.5541 140.648 11.7368 141.063 11.6598C141.342 11.607 141.357 11.4002 141.786 11.3233C142.215 11.2463 142.211 11.3666 142.543 11.2992C142.659 11.2834 142.768 11.2371 142.859 11.1653C142.951 11.0935 143.022 10.9987 143.064 10.8906C143.378 10.2895 143.219 9.56353 143.344 8.77501C143.489 7.8134 143.913 7.18835 144.492 7.05853C144.01 7.8182 143.937 9.22216 144.01 10.1309C144.092 11.1502 143.904 13.0157 142.379 13.7417C141.805 14.011 140.981 13.8956 140.204 14.3427C139.867 14.5135 139.591 14.7838 139.413 15.1168C139.341 15.189 139.196 15.1793 139.167 15.0832C139.119 14.8009 138.968 14.5465 138.742 14.3689C138.517 14.1914 138.234 14.1032 137.947 14.1216C137.185 14.2754 135.936 14.5591 135.936 14.5591L124.842 16.9631C124.534 17.0305 124.471 17.266 124.534 17.5497C124.625 17.968 124.432 18.2325 124.158 18.0978C123.81 17.9296 123.506 17.2516 122.986 17.3622L115.63 18.9585C115.322 19.0258 115.273 19.2662 115.336 19.5499C115.428 19.9634 115.172 20.1749 114.965 20.1509C114.651 20.1413 114.304 18.997 114.082 17.9921V17.9728ZM146.489 53.8362C146.489 53.8987 146.489 53.9804 146.296 54.0189C142.842 54.6535 140.305 57.5528 140.305 60.3511C140.305 61.6733 141.068 63.1157 142.235 63.1157C144.323 63.1446 144.887 58.6154 143.064 58.5336C142.604 58.5246 142.156 58.6798 141.801 58.9712C141.42 59.2548 140.995 59.3318 141.54 58.7067C142.867 57.1778 143.768 56.6633 144.844 57.6057C146.079 58.6875 145.35 61.1829 144.077 62.5724C143.267 63.4475 142.254 64.0148 141.381 64.0148C139.24 64.0148 138.217 61.9666 138.661 59.7501C139.273 56.6729 141.902 54.8266 144.767 53.9804C145.939 53.6535 146.45 53.7352 146.489 53.8554V53.8362ZM150.405 65.087C150.743 64.7365 151.006 64.3205 151.177 63.8649C151.348 63.4093 151.423 62.9236 151.399 62.4378C151.433 62.0658 151.33 61.6942 151.11 61.3918C150.89 61.0894 150.568 60.8768 150.203 60.7934C149.87 60.745 149.531 60.7746 149.212 60.8798C148.893 60.9849 148.603 61.1628 148.365 61.3992C148.186 61.5339 147.998 61.7502 147.883 61.6877C147.767 61.6252 147.921 61.2983 148.047 60.88C148.172 60.4617 148.452 59.3654 148.741 58.2836C148.833 57.8012 149.07 57.3582 149.421 57.0143C150.164 56.2258 150.54 55.8123 151.071 55.7738C151.601 55.7353 151.891 55.8988 152.58 55.9132C153.142 55.9622 153.707 55.854 154.211 55.6007C154.399 55.4997 154.519 55.3988 154.587 55.4517C154.76 55.5863 154.042 56.3652 153.579 56.6873C153.092 57.0392 152.502 57.2216 151.9 57.2066C151.299 57.1959 150.701 57.1202 150.116 56.9806C150.069 56.9737 150.022 56.9855 149.984 57.0135C149.946 57.0414 149.92 57.0832 149.913 57.1297C149.672 57.9086 149.431 58.875 149.17 59.827C149.583 59.5588 150.062 59.4106 150.555 59.3991C152.04 59.3991 152.797 60.3944 152.797 61.8031C152.797 63.159 151.775 64.5052 150.743 65.3707C149.812 66.1833 148.539 66.9381 147.333 66.9381C147.053 66.9657 146.77 66.9294 146.506 66.8319C146.242 66.7344 146.003 66.5784 145.809 66.3756C145.767 66.2971 145.745 66.2096 145.746 66.1208C145.749 65.9345 145.798 65.752 145.89 65.5898C145.982 65.4277 146.113 65.2911 146.272 65.1928C146.45 65.1447 146.561 65.2313 146.701 65.3707C147.05 65.6595 147.472 65.846 147.921 65.9092C148.37 65.9609 148.825 65.9142 149.254 65.7721C149.684 65.6301 150.076 65.3963 150.405 65.087ZM126.511 57.923C126.228 58.0175 125.932 58.0678 125.633 58.0721C125.151 58.0721 125.055 57.8894 125.494 57.7355C126.521 57.2405 127.436 56.54 128.18 55.6776C128.662 55.1584 128.73 55.394 128.508 56.1585C128.363 56.6393 127.365 60.5338 127.365 60.5338C127.1 61.4954 126.444 62.0772 125.436 62.9378C126.066 62.6565 126.769 62.5775 127.447 62.7118C127.777 62.7628 128.115 62.7072 128.412 62.5532C128.807 62.3801 128.894 62.5291 128.624 62.7744C127.77 63.6254 127.471 63.9908 126.444 63.9716C125.619 63.9716 124.809 63.7071 124.056 63.9716C123.574 64.135 123.545 63.9956 123.834 63.7071C125.223 62.3272 125.175 62.683 126.511 57.923ZM165.955 52.5572C166.321 51.702 166.353 50.7411 166.044 49.8637C165.735 48.9863 165.108 48.256 164.286 47.8165C162.169 46.5712 159.834 46.9943 158.223 47.7443C157.013 46.0808 156.072 45.1288 153.622 44.2777C143.802 40.8784 139.587 35.0559 133.056 32.0845C131.657 31.4569 130.189 30.9938 128.682 30.7046C130.051 29.5458 131.402 27.5168 132.299 26.2667C133.196 25.0166 134.643 23.0405 136.678 21.6654C137.161 21.3577 137.161 21.3481 137.494 21.1077C138.265 21.6606 139.423 20.7134 138.627 19.5306C138.014 18.6412 135.362 16.7035 133.9 16.7083C134.31 16.9872 135.289 17.8574 136.568 19.8768C132.954 21.5116 129.644 23.7435 126.777 26.4783C123.627 29.4929 122.961 32.0124 118.939 33.2817C121.307 37.181 126.704 41.7199 128.85 43.095C128.013 43.5644 127.333 44.2704 126.897 45.124C125.72 44.5037 124.915 44.1287 123.347 44.2056C120.757 44.3258 119.349 45.9894 118.63 47.5713C117.776 47.2173 116.863 47.0265 115.939 47.0087C112.78 47.052 111.632 49.3791 111.632 50.9994C111.603 51.7389 111.814 52.468 112.232 53.0791C112.651 53.6903 113.255 54.1512 113.957 54.3939C114.689 54.6378 115.482 54.6281 116.208 54.3663C116.933 54.1045 117.549 53.6059 117.955 52.9515C118.129 52.6774 117.955 52.6053 117.748 52.788C116.079 54.1631 113.889 53.2352 113.889 51.4658C113.889 51.2091 113.94 50.9551 114.04 50.7185C114.14 50.482 114.287 50.2678 114.471 50.0886C114.655 49.9094 114.874 49.7687 115.113 49.6749C115.353 49.5811 115.609 49.5362 115.867 49.5426C118.408 49.5426 120.752 53.2111 124.664 52.4274C125.331 52.3159 125.961 52.0457 126.501 51.6398C127.041 51.2338 127.474 50.7041 127.765 50.0955C127.852 49.908 127.669 49.8166 127.534 49.9657C126.502 51.0859 124.891 50.8023 123.164 50.009C121.235 49.1291 121.273 48.8887 119.378 47.879C119.692 47.3866 120.117 46.9742 120.62 46.6746C121.122 46.3749 121.688 46.1963 122.272 46.1529C124.158 45.9606 125.725 47.3645 127.172 48.3742C128.619 49.3839 130.857 51.4417 133.722 51.0523C134.395 50.9835 135.042 50.7529 135.607 50.3803C136.171 50.0076 136.637 49.504 136.963 48.9127C137.064 48.7348 136.886 48.6338 136.741 48.7733C135.637 49.8262 134.05 49.4464 132.376 48.5473C130.514 47.552 128.103 45.8403 127.63 45.5471C128.523 44.4989 129.487 43.8258 131.426 44.1046C133.365 44.3835 134.889 45.7779 136.283 47.076C137.677 48.3742 139.862 50.8167 142.582 50.8167C143.257 50.8401 143.928 50.7016 144.538 50.413C145.148 50.1243 145.68 49.6939 146.088 49.1579C146.219 48.9944 146.055 48.8694 145.891 48.9848C144.651 49.8743 143.137 49.2733 141.603 48.1482C140.334 47.1658 139.126 46.1077 137.986 44.9797C138.352 44.5892 138.803 44.2884 139.305 44.1007C139.807 43.913 140.346 43.8436 140.879 43.8979C143.088 44.0133 144.892 46.1433 146.214 47.653C147.535 49.1627 149.05 51.4995 151.924 51.8264C152.594 51.9215 153.276 51.853 153.913 51.6269C154.55 51.4007 155.122 51.0237 155.58 50.5282C155.725 50.3792 155.58 50.2397 155.402 50.3407C154.076 51.1004 152.561 50.4176 151.22 49.0762C149.773 47.6338 148.384 46.0038 148.326 45.9557C148.86 45.4713 149.526 45.1542 150.239 45.0439C150.953 44.9336 151.683 45.035 152.339 45.3355C153.998 46.0183 154.833 47.3789 156.039 49.0858C157.244 50.7927 158.503 52.5813 159.728 53.5573C162.367 55.6969 165.048 54.3795 165.955 52.5572ZM149.402 44.4124C147.473 44.9893 146.445 44.047 144.955 43.3786C143.899 42.8877 142.744 42.6459 141.579 42.6718C137.686 42.869 135.405 41.6477 130.727 37.7292C127.587 35.0991 125.281 34.0943 123.535 33.5077C124.514 33.0182 125.586 32.7427 126.68 32.6999C133.592 32.248 138.116 39.4312 150.391 44.1575C150.055 44.2158 149.724 44.301 149.402 44.4124ZM158.667 48.4415C159.924 47.9157 161.333 47.8762 162.617 48.3309C163.789 48.8117 165.029 50.1965 164.344 51.6677C163.953 52.5043 162.936 52.9034 161.826 52.3889C160.717 51.8745 158.817 48.6675 158.667 48.4463V48.4415ZM130.143 66.4718C131.026 62.8224 133.355 60.2213 136.437 57.0095C135.781 57.1839 135.105 57.2744 134.426 57.2787C133.076 57.3124 131.677 56.6729 130.698 57.423C130.167 57.9038 130.037 57.5528 130.553 56.9422C131.084 56.2873 131.828 55.8383 132.656 55.6728C133.669 55.5623 134.489 55.9325 135.584 55.8844C136.421 55.8831 137.249 55.7198 138.024 55.4036C138.265 55.4709 137.976 55.7402 137.204 56.7354C134.31 60.2453 133.346 61.2983 132.728 64.4283C132.671 64.6114 132.568 64.7769 132.429 64.9091C131.879 65.4621 131.267 66.0823 130.688 66.6545C130.264 67.0776 129.979 67.1016 130.143 66.4766V66.4718Z" fill="#1A1212"/>
</svg>
