<svg width="203" height="94" viewBox="0 0 203 94" fill="none" xmlns="http://www.w3.org/2000/svg">
<path d="M42.4036 66.7914L56.671 66.7744C56.671 64.6234 55.5029 55.5401 46.2238 55.5401C40.7271 55.5401 34.5433 60.0766 34.5433 70.492C34.5433 78.7428 39.6724 83.993 45.1279 84.2139C55.1697 84.6183 56.0423 74.4237 56.0423 74.4237H55.6987C55.6987 74.4237 53.4657 80.0817 47.6358 79.7895C41.1084 79.4496 40.4454 72.1538 40.5107 68.6468C40.5179 68.154 40.7201 67.6836 41.0741 67.3367C41.428 66.9898 41.9053 66.794 42.4036 66.7914ZM45.8047 56.4813C50.391 56.2707 50.7723 62.4316 50.7689 63.6719C50.7689 64.6676 50.5456 65.4016 49.3466 65.4016H40.8439C40.8439 65.4016 40.6618 56.7158 45.8047 56.4813ZM81.8493 79.4632C81.8493 82.2022 82.7459 83.8809 82.7459 83.8809H75.5521C75.5521 83.8809 76.4247 82.2633 76.4488 79.5924V65.371C76.4488 61.0927 75.0987 59.3596 72.4053 58.8907C69.2103 58.3334 65.6787 60.2057 65.6787 65.0312V79.47C65.6787 82.209 66.5753 83.8877 66.5753 83.8877H59.3884C59.3884 83.8877 60.2851 82.2225 60.2851 79.47V61.8844C60.2972 60.6938 59.8329 59.5468 58.9933 58.6936C58.9933 58.6936 62.7929 58.0581 65.4932 55.975H65.6959V60.2431L67.2349 58.7174C70.8181 55.173 75.425 54.8468 78.3005 56.8619C80.5335 58.4319 81.839 61.0009 81.839 64.2054L81.8493 79.4632ZM30.4929 49.1991V79.8268C30.4978 81.2203 30.7998 82.5971 31.3793 83.8673H23.1995C23.7978 82.5388 24.0967 81.0975 24.0755 79.6433V63.485H7.28656V79.538C7.30374 82.2327 8.18321 83.8673 8.18321 83.8673H0C0.569218 82.6237 0.871044 81.2768 0.886343 79.9118V49.1141C0.871044 47.7491 0.569218 46.4021 0 45.1586H8.18321C8.18321 45.1586 7.30374 46.7931 7.28656 49.4879V61.7417H24.0893V49.3792C24.1057 47.9251 23.8021 46.485 23.1995 45.1586H31.3793C30.7998 46.4288 30.4978 47.8056 30.4929 49.1991ZM109.735 79.4632C109.735 82.2022 110.631 83.8809 110.631 83.8809H103.434C103.434 83.8809 104.303 82.2633 104.331 79.5924V65.371C104.331 61.0927 102.981 59.3596 100.287 58.8907C97.0923 58.3334 93.5607 60.2057 93.5607 65.0312V79.47C93.5607 82.209 94.4574 83.8877 94.4574 83.8877H87.2876C87.2876 83.8877 88.1842 82.2225 88.1842 79.47V61.8844C88.1964 60.6938 87.7321 59.5468 86.8925 58.6936C86.8925 58.6936 90.6921 58.0581 93.3924 55.975H93.5951V60.2431L95.1376 58.7174C98.7036 55.1764 103.31 54.8366 106.183 56.8517C108.416 58.4217 109.721 60.9907 109.721 64.1952L109.735 79.4632ZM155.216 70.2712C155.968 71.0213 156.544 71.9251 156.905 72.9189C157.266 73.9128 157.402 74.9727 157.305 76.0243C157.116 79.0826 154.832 83.66 147.82 83.9828C144.783 84.1479 141.754 83.5481 139.015 82.2395V76.6223C139.015 76.6223 143.481 83.3202 149.222 82.4163C151.97 81.9847 153.018 80.4419 153.104 78.6783C153.282 74.9912 149.29 72.847 146.807 71.4163C140.929 68.0386 139.183 66.0404 139.073 63.1452C138.836 56.8857 145.054 55.7032 147.387 55.591C151.778 55.3837 154.519 56.4304 154.519 56.4304L154.808 61.4087C154.272 60.2635 150.314 55.7745 145.999 56.9265C143.965 57.4702 143.447 59.03 143.515 60.1922C143.67 62.7374 145.827 64.3413 148.614 65.9521C151.678 67.7157 153.973 68.9697 155.216 70.2712ZM176.004 70.2712C176.756 71.0213 177.332 71.9251 177.693 72.9189C178.054 73.9128 178.19 74.9727 178.093 76.0243C177.904 79.0826 175.62 83.66 168.608 83.9828C165.571 84.1479 162.541 83.5481 159.803 82.2395V76.6223C159.803 76.6223 164.269 83.3202 170.009 82.4163C172.758 81.9847 173.788 80.4419 173.892 78.6783C174.07 74.9912 170.078 72.847 167.594 71.4163C161.716 68.0386 159.971 66.0404 159.861 63.1452C159.624 56.8857 165.842 55.7032 168.175 55.591C172.565 55.3837 175.307 56.4304 175.307 56.4304L175.596 61.4087C175.056 60.2635 171.102 55.7745 166.787 56.9265C164.753 57.4702 164.235 59.03 164.303 60.1922C164.458 62.7374 166.615 64.3413 169.401 65.9521C172.466 67.7157 174.761 68.9697 176.004 70.2712ZM200.159 62.1529L200.176 62.0985C196.906 70.9338 190.955 86.997 190.495 88.2169C188.891 92.4986 185.685 93.705 184.019 93.9225C182.805 94.0789 181.571 93.9981 180.388 93.6846L181.889 89.651C185.411 90.9763 187.918 89.9058 188.836 88.1184C189.629 86.5756 189.774 84.3498 188.994 82.1682L180.989 61.1267C179.587 57.426 178.523 56.3862 178.523 56.3862H186.08C186.246 57.6404 186.506 58.8808 186.857 60.097L193.041 77.2068L198.596 62.1529C199.987 58.2382 199.887 56.376 199.887 56.376H203C201.847 58.1955 200.894 60.1323 200.159 62.1529ZM121.642 66.7914L135.909 66.7744C135.909 64.6234 134.745 55.5401 125.466 55.5401C119.969 55.5401 113.785 60.0766 113.785 70.492C113.785 78.7428 118.911 83.993 124.366 84.2139C134.408 84.6183 135.281 74.4237 135.281 74.4237H134.937C134.937 74.4237 132.708 80.0817 126.878 79.7895C120.35 79.4496 119.684 72.1538 119.749 68.6468C119.758 68.1546 119.961 67.6852 120.314 67.3387C120.668 66.9921 121.144 66.7958 121.642 66.7914ZM125.046 56.4813C129.629 56.2707 130.014 62.4316 130.011 63.6719C130.011 64.6676 129.784 65.4016 128.588 65.4016H120.075C120.075 65.4016 119.893 56.7158 125.04 56.4813H125.046ZM84.5976 19.8354C84.0377 20.6509 83.7147 21.0383 83.8281 21.667C83.8281 21.7384 83.7834 21.7723 83.7422 21.7112C83.5445 21.3157 83.4715 20.8705 83.5327 20.4335C83.6941 19.0742 85.2332 17.4329 85.8001 16.896C85.9211 16.7703 86.0772 16.6831 86.2485 16.6456C86.4199 16.608 86.5986 16.6219 86.762 16.6853C87.783 15.697 89.0333 14.9713 90.4035 14.5716C90.4516 14.5716 90.4757 14.6124 90.4344 14.643C89.2333 15.7156 88.1244 16.8852 87.1193 18.1397C86.9804 18.2617 86.8066 18.338 86.622 18.3581C86.4374 18.3781 86.251 18.341 86.0886 18.2518C85.4996 18.687 84.9946 19.2234 84.5976 19.8354ZM105.873 3.96928C106.688 2.37673 108.07 1.13853 109.752 0.492946C111.322 -0.0971249 113.045 -0.159228 114.654 0.316239C115.438 0.55751 118.055 1.58376 116.393 2.30077C114.981 2.91245 113.589 3.63286 113.476 5.55963C113.414 6.64365 113.819 6.9189 114.565 7.21454C114.716 6.9325 114.768 6.90871 114.909 6.61986C114.737 6.41313 114.593 6.18456 114.483 5.94023C114.476 5.92956 114.473 5.91713 114.475 5.90478C114.476 5.89243 114.481 5.88082 114.49 5.87166C114.498 5.86251 114.509 5.85631 114.522 5.85397C114.534 5.85163 114.547 5.85327 114.558 5.85867L115.589 6.41257C115.702 6.47374 115.668 6.5451 115.62 6.63345C115.385 7.01905 115.176 7.41853 114.991 7.82961C114.809 8.27138 114.775 8.16943 114.41 7.96214C114.098 7.79563 113.792 7.65631 113.541 7.51359C113.129 7.8534 112.432 8.75732 112.346 10.3647C112.346 10.4156 112.27 10.4122 112.256 10.3647C111.501 8.22041 112.796 6.94269 112.796 6.94269C112.456 6.07141 112.419 5.11319 112.69 4.21875C112.961 3.32431 113.525 2.54442 114.294 2.00174C111.999 0.7682 108.515 1.34589 106.997 3.62267C107.343 3.76273 107.641 3.99872 107.856 4.3023C107.886 4.34648 107.856 4.39405 107.804 4.37706C107.248 4.21141 106.661 4.17078 106.086 4.25813C105.866 4.29891 105.736 4.25133 105.873 3.98288V3.96928ZM111.099 3.81637C111.068 3.86734 110.992 4.05084 111.274 4.21056C111.337 4.24254 111.399 4.2777 111.459 4.3159C111.617 4.41444 111.635 4.47561 111.531 4.63193C111.477 4.71688 111.47 4.72028 111.408 4.81203C111.346 4.90378 111.356 4.90378 111.288 5.01253C111.181 5.17904 111.136 5.18923 110.968 5.08388C110.875 5.02272 110.882 5.01932 110.793 4.96495C110.704 4.91058 110.704 4.91738 110.583 4.84262C110.463 4.76786 110.405 4.69309 110.515 4.52658C110.57 4.43823 110.58 4.43823 110.638 4.34988C110.827 4.05763 110.679 3.94549 110.638 3.91491C110.597 3.88433 110.432 3.78578 110.236 4.08822C110.178 4.17657 110.181 4.18337 110.126 4.27512C110.027 4.42804 109.968 4.44163 109.803 4.33968C109.639 4.23774 109.69 4.25813 109.604 4.20376C109.518 4.14939 109.518 4.15618 109.422 4.09501C109.268 3.99647 109.254 3.9353 109.357 3.77898C109.46 3.62267 109.429 3.68044 109.491 3.58869C109.553 3.49694 109.549 3.48674 109.604 3.40179C109.704 3.24887 109.759 3.23188 109.924 3.33382C110.02 3.39499 110.013 3.39839 110.099 3.45956C110.363 3.64306 110.508 3.49354 110.532 3.45956C110.556 3.42557 110.638 3.22848 110.36 3.06877C110.267 3.0144 110.267 3.02119 110.171 2.96002C110.01 2.85808 109.996 2.80711 110.102 2.64399C110.154 2.56244 110.164 2.55904 110.226 2.46389C110.288 2.36874 110.274 2.37214 110.346 2.2668C110.418 2.16145 110.501 2.09009 110.666 2.19543C110.758 2.2532 110.752 2.2566 110.838 2.31437C110.923 2.37214 110.93 2.36195 111.047 2.43671C111.164 2.51147 111.222 2.59302 111.119 2.75273C111.061 2.84109 111.047 2.83769 110.996 2.92604C110.803 3.26586 110.996 3.36441 110.996 3.36441C110.996 3.36441 111.171 3.50373 111.401 3.1877C111.463 3.10275 111.452 3.09255 111.511 3.0042C111.624 2.8275 111.652 2.8241 111.83 2.93624C111.951 3.011 111.944 3.01779 112.03 3.07556C112.116 3.13333 112.119 3.12314 112.212 3.18091C112.366 3.27945 112.383 3.34062 112.28 3.50033C112.212 3.60568 112.208 3.59548 112.146 3.69063C112.085 3.78578 112.085 3.79258 112.033 3.87413C111.933 4.02705 111.872 4.04404 111.714 3.9421C111.652 3.90453 111.592 3.8637 111.535 3.81976C111.27 3.63966 111.133 3.78238 111.099 3.82996V3.81637ZM103.716 7.42523C103.005 5.99799 103.372 5.26739 103.396 5.35574C103.599 6.21208 104.083 6.46695 104.303 6.81696C104.397 6.96072 104.481 7.11058 104.554 7.26551C106.042 6.94609 109.604 6.1747 109.927 6.11014C110.25 6.04557 110.504 7.35047 110.229 7.41504C109.807 7.51698 106.231 8.27138 104.774 8.57721C104.513 11.3297 102.438 12.6754 100.432 13.3041C99.8467 13.474 99.2495 13.599 98.6452 13.6779C98.1678 12.8311 97.804 11.9263 97.563 10.9865C98.044 11.4081 98.6297 11.6954 99.2601 11.8191C100.334 11.9673 101.427 11.7259 102.335 11.1394C104.087 9.78697 103.987 7.94176 103.716 7.43883V7.42523ZM81.2584 12.7026C81.1038 11.9958 81.1519 11.7307 81.4027 11.5846C81.5401 11.5064 81.7462 11.5642 81.8184 11.8599C81.839 11.955 81.8802 12.1589 81.9043 12.2676C81.9558 12.4885 81.9902 12.5599 82.107 12.5531C82.3062 12.5361 82.6326 11.9856 83.2819 11.8463C83.2819 11.8463 84.9446 11.5064 87.4388 10.9729C87.8098 10.8914 87.7823 10.4156 87.9609 10.2049C88.1396 9.99426 88.3045 10.1506 88.3698 10.4462C88.3904 10.5414 88.4282 10.7453 88.4522 10.8506C88.5003 11.0749 88.5381 11.1462 88.6549 11.136C88.8541 11.136 89.1771 10.5753 89.8264 10.436L97.4496 8.7913C97.4853 8.21209 97.6009 7.64043 97.7932 7.09221C97.8041 7.07315 97.8211 7.05811 97.8414 7.04932C97.8617 7.04053 97.8844 7.03846 97.906 7.04342C97.9276 7.04838 97.947 7.06011 97.9613 7.07686C97.9757 7.09361 97.9842 7.11449 97.9856 7.13639C97.9856 7.76505 98.1195 8.38692 98.4528 8.4141C98.786 8.44129 98.6864 8.33594 98.9646 8.31895C99.1742 8.31895 99.0952 8.48546 99.4456 8.43109C99.6998 8.39032 99.6139 8.26118 99.9403 8.20001C100.109 8.16603 100.181 8.29517 100.476 8.2408C100.676 8.20342 100.686 8.05729 100.992 8.00292C101.297 7.94855 101.294 8.03351 101.531 7.98593C101.613 7.97472 101.691 7.94204 101.756 7.89128C101.821 7.84051 101.872 7.77348 101.902 7.69708C102.125 7.27231 102.012 6.75919 102.101 6.20189C102.204 5.52225 102.507 5.08049 102.919 4.98874C102.575 5.52565 102.524 6.51792 102.575 7.16017C102.634 7.88059 102.5 9.19908 101.414 9.71221C101.005 9.90251 100.418 9.82095 99.8647 10.137C99.6245 10.2576 99.4277 10.4487 99.3013 10.6841C99.2498 10.7351 99.1467 10.7283 99.1261 10.6603C99.0917 10.4608 98.9839 10.281 98.8234 10.1555C98.6629 10.03 98.4611 9.96771 98.257 9.98066C97.7141 10.0894 96.8244 10.2899 96.8244 10.2899L88.9229 11.989C88.703 12.0366 88.6583 12.2031 88.703 12.4036C88.7683 12.6992 88.6308 12.8861 88.435 12.791C88.1877 12.672 87.9712 12.1929 87.6002 12.271L82.3612 13.3992C82.1413 13.4468 82.1069 13.6167 82.1516 13.8172C82.2169 14.1094 82.0348 14.259 81.8871 14.242C81.6638 14.2352 81.4164 13.4264 81.2584 12.7162V12.7026ZM104.341 38.0496C104.341 38.0938 104.341 38.1516 104.204 38.1788C101.744 38.6273 99.9369 40.6764 99.9369 42.6542C99.9369 43.5886 100.48 44.6081 101.311 44.6081C102.799 44.6285 103.201 41.4274 101.902 41.3696C101.574 41.3632 101.255 41.4729 101.002 41.6789C100.73 41.8794 100.428 41.9337 100.816 41.492C101.761 40.4114 102.404 40.0477 103.17 40.7138C104.049 41.4784 103.53 43.242 102.623 44.2241C102.046 44.8426 101.325 45.2436 100.703 45.2436C99.1776 45.2436 98.4493 43.7959 98.7654 42.2294C99.2017 40.0545 101.074 38.7496 103.115 38.1516C103.949 37.9205 104.314 37.9783 104.341 38.0632V38.0496ZM107.131 46.0014C107.372 45.7536 107.559 45.4596 107.68 45.1376C107.802 44.8156 107.856 44.4723 107.838 44.129C107.863 43.8661 107.79 43.6034 107.633 43.3897C107.476 43.176 107.247 43.0257 106.986 42.9668C106.75 42.9326 106.508 42.9535 106.281 43.0278C106.054 43.1021 105.847 43.2278 105.677 43.395C105.55 43.4901 105.416 43.643 105.334 43.5988C105.251 43.5547 105.361 43.3236 105.451 43.028C105.54 42.7323 105.739 41.9575 105.945 41.1929C106.011 40.852 106.18 40.5389 106.43 40.2958C106.959 39.7385 107.227 39.4463 107.605 39.4191C107.983 39.3919 108.189 39.5074 108.68 39.5176C109.08 39.5522 109.482 39.4757 109.841 39.2967C109.975 39.2254 110.061 39.154 110.109 39.1914C110.233 39.2866 109.721 39.8371 109.391 40.0647C109.044 40.3134 108.624 40.4423 108.196 40.4317C107.767 40.4242 107.341 40.3707 106.925 40.272C106.891 40.2672 106.857 40.2755 106.83 40.2952C106.803 40.315 106.785 40.3445 106.78 40.3774C106.608 40.9279 106.437 41.6109 106.251 42.2837C106.545 42.0942 106.886 41.9895 107.237 41.9813C108.295 41.9813 108.835 42.6847 108.835 43.6804C108.835 44.6387 108.106 45.5902 107.371 46.2019C106.708 46.7761 105.801 47.3097 104.942 47.3097C104.743 47.3291 104.541 47.3035 104.353 47.2346C104.165 47.1657 103.995 47.0554 103.857 46.9121C103.827 46.8566 103.812 46.7947 103.812 46.732C103.814 46.6004 103.849 46.4713 103.915 46.3567C103.98 46.2421 104.074 46.1456 104.187 46.0761C104.314 46.0421 104.393 46.1033 104.492 46.2019C104.741 46.406 105.042 46.5377 105.361 46.5824C105.681 46.619 106.005 46.5859 106.311 46.4856C106.617 46.3852 106.896 46.2199 107.131 46.0014ZM90.1115 40.9381C89.9098 41.0049 89.6989 41.0404 89.4863 41.0434C89.1427 41.0434 89.074 40.9143 89.3866 40.8055C90.1186 40.4557 90.7699 39.9606 91.3002 39.3511C91.6437 38.9841 91.6918 39.1506 91.5338 39.6909C91.4307 40.0308 90.7196 42.7833 90.7196 42.7833C90.5306 43.4629 90.0634 43.8741 89.3454 44.4824C89.7947 44.2835 90.2953 44.2277 90.778 44.3227C91.0133 44.3587 91.254 44.3194 91.4651 44.2105C91.7468 44.0882 91.8086 44.1935 91.6162 44.3668C91.0082 44.9683 90.7952 45.2266 90.0634 45.213C89.476 45.213 88.8988 45.0261 88.3629 45.213C88.0193 45.3285 87.9987 45.23 88.2049 45.0261C89.1943 44.0508 89.1599 44.3023 90.1115 40.9381ZM118.207 37.1457C118.467 36.5413 118.49 35.8622 118.27 35.242C118.05 34.6219 117.603 34.1057 117.018 33.7951C115.51 32.915 113.847 33.214 112.7 33.7441C111.837 32.5684 111.167 31.8955 109.422 31.294C102.428 28.8915 99.425 24.7763 94.7734 22.6763C93.7765 22.2327 92.7309 21.9054 91.6575 21.701C92.6331 20.882 93.5951 19.448 94.234 18.5645C94.873 17.6809 95.9037 16.2843 97.3534 15.3124C97.697 15.0949 97.697 15.0881 97.934 14.9182C98.4837 15.309 99.3082 14.6396 98.7413 13.8036C98.305 13.1749 96.4156 11.8055 95.3746 11.8089C95.6666 12.006 96.364 12.621 97.2744 14.0483C94.7006 15.2037 92.3427 16.7811 90.3005 18.714C88.0571 20.8446 87.583 22.6253 84.7179 23.5224C86.4047 26.2783 90.2489 29.4862 91.7777 30.4581C91.1811 30.7899 90.697 31.2888 90.3864 31.8921C89.5481 31.4538 88.9744 31.1887 87.8579 31.2431C86.013 31.328 85.0099 32.5038 84.498 33.6218C83.8899 33.3716 83.2396 33.2368 82.581 33.2242C80.3308 33.2548 79.5132 34.8995 79.5132 36.0447C79.4928 36.5673 79.6427 37.0826 79.9409 37.5146C80.239 37.9465 80.6696 38.2723 81.1691 38.4438C81.6905 38.6162 82.2555 38.6093 82.7724 38.4243C83.2894 38.2393 83.728 37.8869 84.0171 37.4244C84.1407 37.2307 84.0171 37.1797 83.8693 37.3088C82.6807 38.2807 81.121 37.6249 81.121 36.3743C81.1209 36.1929 81.1576 36.0133 81.2288 35.8462C81.3 35.679 81.4043 35.5276 81.5355 35.401C81.6668 35.2743 81.8224 35.1749 81.9931 35.1086C82.1638 35.0423 82.3462 35.0105 82.5295 35.015C84.34 35.015 86.0096 37.6079 88.7958 37.054C89.2708 36.9751 89.7196 36.7842 90.1041 36.4973C90.4887 36.2104 90.7976 35.836 91.0047 35.4058C91.0666 35.2733 90.936 35.2087 90.8398 35.3141C90.1046 36.1059 88.9572 35.9054 87.7273 35.3447C86.3532 34.7228 86.3806 34.5529 85.0305 33.8393C85.2544 33.4913 85.5574 33.1998 85.9152 32.988C86.2731 32.7763 86.6759 32.65 87.0918 32.6193C88.435 32.4834 89.5515 33.4757 90.5822 34.1893C91.6128 34.9029 93.2068 36.3573 95.2475 36.0821C95.7272 36.0335 96.1879 35.8705 96.59 35.6071C96.9921 35.3437 97.3236 34.9878 97.5561 34.5699C97.6283 34.4441 97.5012 34.3728 97.3981 34.4713C96.6114 35.2155 95.4811 34.9471 94.289 34.3116C92.9629 33.6082 91.2452 32.3984 90.9085 32.1912C91.5441 31.4504 92.2312 30.9746 93.6122 31.1717C94.9933 31.3688 96.0789 32.3543 97.0717 33.2718C98.0646 34.1893 99.6208 35.9156 101.558 35.9156C102.039 35.9321 102.517 35.8342 102.952 35.6302C103.386 35.4262 103.765 35.122 104.056 34.7432C104.149 34.6277 104.032 34.5393 103.915 34.6209C103.032 35.2495 101.953 34.8247 100.861 34.0296C99.9573 33.3352 99.0968 32.5874 98.2844 31.7902C98.5452 31.5142 98.8669 31.3016 99.2245 31.1689C99.582 31.0363 99.9658 30.9872 100.346 31.0256C101.919 31.1071 103.204 32.6125 104.145 33.6796C105.087 34.7466 106.165 36.3981 108.213 36.6292C108.69 36.6964 109.176 36.648 109.629 36.4882C110.083 36.3283 110.49 36.0619 110.817 35.7117C110.92 35.6063 110.817 35.5078 110.69 35.5791C109.745 36.1161 108.666 35.6335 107.711 34.6854C106.681 33.666 105.691 32.514 105.65 32.48C106.03 32.1376 106.504 31.9135 107.012 31.8356C107.521 31.7576 108.041 31.8293 108.508 32.0416C109.69 32.5242 110.284 33.4859 111.143 34.6922C112.002 35.8986 112.899 37.1627 113.771 37.8525C115.651 39.3647 117.561 38.4336 118.207 37.1457ZM106.416 31.3892C105.042 31.797 104.31 31.1309 103.249 30.6586C102.496 30.3116 101.674 30.1407 100.844 30.159C98.0714 30.2984 96.4465 29.4352 93.1141 26.6657C90.8776 24.8069 89.2355 24.0967 87.9919 23.6821C88.6888 23.3361 89.4525 23.1415 90.2318 23.1112C95.1548 22.7918 98.3772 27.8687 107.12 31.2091C106.881 31.2503 106.646 31.3105 106.416 31.3892ZM113.016 34.2369C113.911 33.8652 114.914 33.8373 115.829 34.1587C116.664 34.4985 117.547 35.4772 117.059 36.517C116.781 37.1083 116.056 37.3904 115.266 37.0268C114.476 36.6632 113.122 34.3966 113.016 34.2403V34.2369ZM92.6984 46.98C93.3271 44.4008 94.9864 42.5624 97.1817 40.2924C96.7142 40.4157 96.2328 40.4796 95.7491 40.4827C94.7872 40.5065 93.7909 40.0545 93.0935 40.5847C92.7156 40.9245 92.6228 40.6764 92.9904 40.2448C93.3685 39.782 93.8984 39.4646 94.4883 39.3477C95.2097 39.2696 95.7937 39.5312 96.5736 39.4972C97.1698 39.4963 97.7602 39.3809 98.3119 39.1574C98.4837 39.205 98.2776 39.3953 97.7279 40.0987C95.6666 42.5794 94.9795 43.3236 94.5398 45.5358C94.4992 45.6652 94.4259 45.7822 94.3268 45.8756C93.9352 46.2664 93.4989 46.7048 93.0866 47.1092C92.7843 47.4082 92.5816 47.4252 92.6984 46.9834V46.98Z" fill="#F7F5F0"/>
</svg>
